<?xml version="1.0" encoding="utf-8"?>
<!-- Generator: Adobe Illustrator 25.0.1, SVG Export Plug-In . SVG Version: 6.00 Build 0)  -->
<svg version="1.1" id="Layer_1" xmlns="http://www.w3.org/2000/svg" xmlns:xlink="http://www.w3.org/1999/xlink" x="0px" y="0px"
	 viewBox="0 0 940.7 885.9" style="enable-background:new 0 0 940.7 885.9;" xml:space="preserve">
<style type="text/css">
	.st0{fill:#0FACD1;}
	.st1{fill:none;stroke:#708FA0;stroke-width:4;stroke-miterlimit:10;}
	.st2{fill:none;stroke:#708FA0;stroke-width:4;stroke-linecap:round;stroke-linejoin:round;}
	.st3{fill:#FFFFFF;}
	.st4{fill:#1DE8F7;}
	.st5{opacity:0.1;fill:none;stroke:#EF4230;stroke-width:5;stroke-miterlimit:10;enable-background:new    ;}
	.st6{opacity:0.1;fill:none;stroke:#26A6E0;stroke-width:5;stroke-miterlimit:10;enable-background:new    ;}
	.st7{opacity:0.15;fill:#20C5F2;enable-background:new    ;}
	.st8{fill:none;stroke:#708FA0;stroke-width:4;stroke-linecap:round;stroke-miterlimit:10;}
	.st9{opacity:0.2;fill:#20C5F2;enable-background:new    ;}
</style>
<g id="גרפיקה" transform="translate(-69.648 -516.034)">
	<g id="Group_10">
		<g id="Group_6">
			<path id="Path_33" class="st0" d="M852.3,1243.8l146.6-67.6c6.3-2.9,11.5-12,11.5-20.3V836.1c-0.7-15.4-14.3-24.1-23-19.3
				l-135.1,77.3c-6.3,2.9-11.5,12-11.5,20.3l-10.2,311.3C830.6,1234.5,844.8,1247.1,852.3,1243.8z"/>
			<line id="Line_2" class="st1" x1="962.4" y1="824.8" x2="959.7" y2="839.8"/>
			<path id="Path_34" class="st2" d="M959.2,838.3l-0.6,3.5c-0.4,2.5,0.6,4.3,2.4,4.1l0,0c1.7-0.2,3.5-2.4,3.9-4.9l0.6-3.5l3.1-17.5
				"/>
			<path id="Path_35" class="st3" d="M842.1,1233.6l146.6-67.6c6.3-2.9,11.5-12,11.5-20.3V825.9c0-8.3-5.1-12.6-11.5-9.7
				l-146.6,67.6c-6.3,2.9-11.5,12-11.5,20.3v319.8C830.6,1232.2,835.7,1236.5,842.1,1233.6z"/>
			<path id="Path_36" class="st4" d="M988.6,1166L988.6,1166c6.3-2.9,11.5-12,11.5-20.3V825.9c0-8.3-5.1-12.6-11.5-9.7l0,0V1166z"/>
			<g id="Group_4">
				<line id="Line_3" class="st5" x1="988.6" y1="840" x2="830.6" y2="912.9"/>
				<line id="Line_4" class="st6" x1="988.6" y1="867.3" x2="830.6" y2="940.2"/>
				<line id="Line_5" class="st6" x1="988.6" y1="894.7" x2="830.6" y2="967.6"/>
				<line id="Line_6" class="st6" x1="988.6" y1="922" x2="830.6" y2="995"/>
				<line id="Line_7" class="st6" x1="988.6" y1="949.4" x2="830.6" y2="1022.3"/>
				<line id="Line_8" class="st6" x1="988.6" y1="976.8" x2="830.6" y2="1049.7"/>
				<line id="Line_9" class="st6" x1="988.6" y1="1004.1" x2="830.6" y2="1077"/>
				<line id="Line_10" class="st6" x1="988.6" y1="1031.5" x2="830.6" y2="1104.4"/>
				<line id="Line_11" class="st6" x1="988.6" y1="1058.8" x2="830.6" y2="1131.8"/>
				<line id="Line_12" class="st6" x1="988.6" y1="1086.2" x2="830.6" y2="1159.1"/>
				<line id="Line_13" class="st6" x1="988.6" y1="1113.6" x2="830.6" y2="1186.5"/>
				<line id="Line_14" class="st6" x1="988.6" y1="1140.9" x2="830.6" y2="1213.8"/>
			</g>
			<g id="Group_5">
				<path id="Path_38" class="st1" d="M970.9,838.9l4.9-28c0.8-4.4-1.1-7.7-4.2-7.3l0,0c-3.1,0.4-6.3,4.4-7.1,8.8l-2.2,12.3"/>
				<path id="Path_39" class="st2" d="M973.9,821.9l-4.6,26.3c-1.1,6.2-5.6,11.8-10,12.4l0,0c-4.4,0.6-7.1-4-6-10.2l2.8-15.8"/>
			</g>
		</g>
		<g id="Group_9">
			<path id="Path_40" class="st0" d="M227.7,1099.9l-146.6-67.6c-6.3-2.9-11.5-12-11.5-20.3V692.2c0-10.9,13.2-24.9,23-19.3
				l135.1,77.3c6.3,2.9,11.5,12,11.5,20.3l5.8,314.9C245,1093.6,235.2,1103.2,227.7,1099.9z"/>
			<line id="Line_15" class="st2" x1="117.6" y1="680.9" x2="120.3" y2="695.9"/>
			<path id="Path_41" class="st2" d="M120.8,694.4l0.6,3.5c0.4,2.5-0.6,4.3-2.4,4.1l0,0c-1.7-0.2-3.5-2.4-3.9-4.9l-0.6-3.5
				l-3.1-17.5"/>
			<path id="Path_42" class="st3" d="M237.9,1089.7l-146.6-67.6c-6.3-2.9-11.5-12-11.5-20.3V682c0-8.3,5.1-12.6,11.5-9.7L237.9,740
				c6.3,2.9,11.5,12,11.5,20.3V1080C249.4,1088.3,244.3,1092.6,237.9,1089.7z"/>
			<path id="Path_43" class="st4" d="M91.4,1022.1L91.4,1022.1c-6.3-2.9-11.5-12-11.5-20.3V682c0-8.3,5.1-12.6,11.5-9.7l0,0V1022.1z
				"/>
			<g id="Group_7">
				<line id="Line_16" class="st5" x1="91.4" y1="696.1" x2="249.4" y2="769"/>
				<line id="Line_17" class="st6" x1="91.4" y1="723.4" x2="249.4" y2="796.4"/>
				<line id="Line_18" class="st6" x1="91.4" y1="750.8" x2="249.4" y2="823.7"/>
				<line id="Line_19" class="st6" x1="91.4" y1="778.2" x2="249.4" y2="851.1"/>
				<line id="Line_20" class="st6" x1="91.4" y1="805.5" x2="249.4" y2="878.4"/>
				<line id="Line_21" class="st6" x1="91.4" y1="832.9" x2="249.4" y2="905.8"/>
				<line id="Line_22" class="st6" x1="91.4" y1="860.2" x2="249.4" y2="933.2"/>
				<line id="Line_23" class="st6" x1="91.4" y1="887.6" x2="249.4" y2="960.5"/>
				<line id="Line_24" class="st6" x1="91.4" y1="915" x2="249.4" y2="987.9"/>
				<line id="Line_25" class="st6" x1="91.4" y1="942.3" x2="249.4" y2="1015.2"/>
				<line id="Line_26" class="st6" x1="91.4" y1="969.7" x2="249.4" y2="1042.6"/>
				<line id="Line_27" class="st6" x1="91.4" y1="997" x2="249.4" y2="1070"/>
			</g>
			<g id="Group_8">
				<path id="Path_45" class="st2" d="M109.1,695l-4.9-28c-0.8-4.4,1.1-7.7,4.2-7.3l0,0c3.1,0.4,6.3,4.4,7.1,8.8l2.2,12.3"/>
				<path id="Path_46" class="st2" d="M106.1,678.1l4.6,26.3c1.1,6.2,5.6,11.8,10,12.4l0,0c4.4,0.6,7.1-4,6-10.2l-2.8-15.8"/>
			</g>
		</g>
	</g>
	<g id="Group_17">
		<g id="Group_13">
			<path id="Path_47" class="st0" d="M676.4,1001.6l205.1-37c8.9-1.6,16.1-10.9,16.1-20.8V562.3c0-12.9-13.7-27.1-25.9-24.1
				l-195.3,46.2c-8.9,1.6-16.1,10.9-16.1,20.8l-8.7,373.3C651.6,988.4,665.9,1003.3,676.4,1001.6z"/>
			<path id="Path_48" class="st7" d="M679.2,1013.1l210.2-38c9.1-1.6,16.5-11.2,16.5-21.3V563c0-13.3-14-27.8-26.5-24.7l-200.2,47.3
				c-9.1,1.6-16.5,11.2-16.5,21.3l-9,382.6C653.8,999.5,668.5,1014.8,679.2,1013.1z"/>
			<line id="Line_28" class="st1" x1="836.1" y1="540.5" x2="832.4" y2="557.6"/>
			<path id="Path_49" class="st8" d="M831.6,555.6l-0.9,4c-0.6,2.8,0.9,5.3,3.3,5.5l0,0c2.4,0.2,4.9-1.9,5.5-4.7l0.9-4l4.3-20"/>
			<path id="Path_50" class="st3" d="M667.7,992.3l205.1-37c8.9-1.6,16.1-10.9,16.1-20.8V553c0-9.9-7.2-16.6-16.1-15l-205.1,37
				c-8.9,1.6-16.1,10.9-16.1,20.8v381.5C651.6,987.2,658.8,993.9,667.7,992.3z"/>
			<path id="Path_51" class="st4" d="M872.8,955.3L872.8,955.3c8.9-1.6,16.1-10.9,16.1-20.8V553c0-9.9-7.2-16.6-16.1-15l0,0V955.3z"
				/>
			<g id="Group_11">
				<line id="Line_29" class="st5" x1="872.8" y1="566.4" x2="651.6" y2="606.3"/>
				<line id="Line_30" class="st6" x1="872.8" y1="599" x2="651.6" y2="639"/>
				<line id="Line_31" class="st6" x1="872.8" y1="631.7" x2="651.6" y2="671.6"/>
				<line id="Line_32" class="st6" x1="872.8" y1="664.3" x2="651.6" y2="704.3"/>
				<line id="Line_33" class="st6" x1="872.8" y1="696.9" x2="651.6" y2="736.9"/>
				<line id="Line_34" class="st6" x1="872.8" y1="729.6" x2="651.6" y2="769.5"/>
				<line id="Line_35" class="st6" x1="872.8" y1="762.2" x2="651.6" y2="802.2"/>
				<line id="Line_36" class="st6" x1="872.8" y1="794.9" x2="651.6" y2="834.8"/>
				<line id="Line_37" class="st6" x1="872.8" y1="827.5" x2="651.6" y2="867.4"/>
				<line id="Line_38" class="st6" x1="872.8" y1="860.1" x2="651.6" y2="900.1"/>
				<line id="Line_39" class="st6" x1="872.8" y1="892.8" x2="651.6" y2="932.7"/>
				<line id="Line_40" class="st6" x1="872.8" y1="925.4" x2="651.6" y2="965.3"/>
			</g>
			<g id="Group_12">
				<path id="Path_53" class="st1" d="M848,559.9l6.9-31.9c1.1-5.1-1.6-9.5-5.9-9.9l0,0c-4.4-0.4-8.8,3.3-9.9,8.4l-3,14.1"/>
				<path id="Path_54" class="st8" d="M852.2,540.5l-6.5,30c-1.5,7.1-7.8,12.4-13.9,11.8l0,0c-6.2-0.6-9.9-6.9-8.4-14l3.9-18"/>
			</g>
		</g>
		<g id="Group_16">
			<path id="Path_55" class="st0" d="M393.3,1401.8l-205.1-37c-8.9-1.6-16.1-10.9-16.1-20.8V962.6c0-13,13.7-27.1,25.9-24.1
				l195.3,46.2c8.9,1.6,16.1,10.9,16.1,20.8l8.7,373.3C418.1,1388.6,403.8,1403.5,393.3,1401.8z"/>
			<path id="Path_56" class="st7" d="M390.9,1401.8l-209.8-37.9c-9.1-1.6-16.4-11.1-16.4-21.2V952.5c0-13.2,14-27.8,26.5-24.6
				l199.8,47.2c9.1,1.6,16.4,11.1,16.4,21.2l8.9,381.9C416.3,1388.3,401.6,1403.6,390.9,1401.8z"/>
			<line id="Line_41" class="st1" x1="233.6" y1="940.7" x2="237.3" y2="957.8"/>
			<path id="Path_57" class="st2" d="M238.1,955.9l0.9,4c0.6,2.8-0.9,5.3-3.3,5.5l0,0c-2.4,0.2-4.9-1.9-5.5-4.7l-0.9-4l-4.3-20"/>
			<path id="Path_58" class="st3" d="M402,1392.5l-205.1-37c-8.9-1.6-16.1-10.9-16.1-20.8V953.2c0-9.9,7.2-16.6,16.1-15l205.1,37
				c8.9,1.6,16.1,10.9,16.1,20.8v381.5C418.1,1387.4,410.9,1394.1,402,1392.5z"/>
			<path id="Path_59" class="st4" d="M196.9,1355.5L196.9,1355.5c-8.9-1.6-16.1-10.9-16.1-20.8V953.2c0-9.9,7.2-16.6,16.1-15l0,0
				V1355.5z"/>
			<g id="Group_14">
				<line id="Line_42" class="st5" x1="196.9" y1="966.6" x2="418.1" y2="1006.6"/>
				<line id="Line_43" class="st6" x1="196.9" y1="999.3" x2="418.1" y2="1039.2"/>
				<line id="Line_44" class="st6" x1="196.9" y1="1031.9" x2="418.1" y2="1071.8"/>
				<line id="Line_45" class="st6" x1="196.9" y1="1064.5" x2="418.1" y2="1104.5"/>
				<line id="Line_46" class="st6" x1="196.9" y1="1097.2" x2="418.1" y2="1137.1"/>
				<line id="Line_47" class="st6" x1="196.9" y1="1129.8" x2="418.1" y2="1169.7"/>
				<line id="Line_48" class="st6" x1="196.9" y1="1162.4" x2="418.1" y2="1202.4"/>
				<line id="Line_49" class="st6" x1="196.9" y1="1195.1" x2="418.1" y2="1235"/>
				<line id="Line_50" class="st6" x1="196.9" y1="1227.7" x2="418.1" y2="1267.6"/>
				<line id="Line_51" class="st6" x1="196.9" y1="1260.3" x2="418.1" y2="1300.3"/>
				<line id="Line_52" class="st6" x1="196.9" y1="1293" x2="418.1" y2="1332.9"/>
				<line id="Line_53" class="st6" x1="196.9" y1="1325.6" x2="418.1" y2="1365.6"/>
			</g>
			<g id="Group_15">
				<path id="Path_61" class="st2" d="M221.6,960.1l-6.9-31.9c-1.1-5.1,1.6-9.5,5.9-9.9l0,0c4.4-0.4,8.8,3.3,9.9,8.4l3,14.1"/>
				<path id="Path_62" class="st2" d="M217.5,940.8l6.5,30c1.5,7.1,7.8,12.4,13.9,11.8l0,0c6.2-0.6,9.9-6.9,8.4-14l-3.9-18"/>
			</g>
		</g>
	</g>
	<g id="Group_20">
		<path id="Rectangle_3" class="st9" d="M378,606.3H702c8.3,0,15,6.7,15,15v517.1c0,8.3-6.7,15-15,15H378c-8.3,0-15-6.7-15-15V621.3
			C363,613,369.7,606.3,378,606.3z"/>
		<path id="Rectangle_4" class="st0" d="M392.8,626.3h294.5c8.3,0,15,6.7,15,15v486c0,8.3-6.7,15-15,15H392.8c-8.3,0-15-6.7-15-15
			v-486C377.8,633,384.5,626.3,392.8,626.3z"/>
		<line id="Line_54" class="st1" x1="449.5" y1="609.3" x2="454.6" y2="629.6"/>
		<path id="Path_63" class="st2" d="M455.6,627l1.2,4.8c0.8,3.4-1.2,6.8-4.6,7.6c0,0,0,0,0,0l0,0c-3.4,0.8-6.8-1.2-7.6-4.6l-1.2-4.8
			l-5.9-23.7"/>
		<path id="Rectangle_5" class="st3" d="M391.9,614.5h296.2c8.3,0,15,6.7,15,15v486c0,8.3-6.7,15-15,15H391.9c-8.3,0-15-6.7-15-15
			v-486C376.9,621.2,383.6,614.5,391.9,614.5z"/>
		<path id="Rectangle_6" class="st4" d="M391.9,614.5h7.1l0,0v516l0,0h-7.1c-8.3,0-15-6.7-15-15v-486
			C376.9,621.2,383.6,614.5,391.9,614.5z"/>
		<g id="Group_18">
			<line id="Line_55" class="st5" x1="399" y1="649.5" x2="703.1" y2="649.5"/>
			<line id="Line_56" class="st6" x1="399" y1="689.9" x2="703.1" y2="689.9"/>
			<line id="Line_57" class="st6" x1="399" y1="730.3" x2="703.1" y2="730.3"/>
			<line id="Line_58" class="st6" x1="399" y1="770.6" x2="703.1" y2="770.6"/>
			<line id="Line_59" class="st6" x1="399" y1="811" x2="703.1" y2="811"/>
			<line id="Line_60" class="st6" x1="399" y1="851.4" x2="703.1" y2="851.4"/>
			<line id="Line_61" class="st6" x1="399" y1="891.7" x2="703.1" y2="891.7"/>
			<line id="Line_62" class="st6" x1="399" y1="932.1" x2="703.1" y2="932.1"/>
			<line id="Line_63" class="st6" x1="399" y1="972.5" x2="703.1" y2="972.5"/>
			<line id="Line_64" class="st6" x1="399" y1="1012.8" x2="703.1" y2="1012.8"/>
			<line id="Line_65" class="st6" x1="399" y1="1053.2" x2="703.1" y2="1053.2"/>
			<line id="Line_66" class="st6" x1="399" y1="1093.6" x2="703.1" y2="1093.6"/>
		</g>
		<g id="Group_19">
			<path id="Path_65" class="st2" d="M433,635.9l-9.5-37.9c-1.5-6,2.1-12.1,8.2-13.6h0l0,0c6-1.5,12.1,2.2,13.6,8.2l4.2,16.7"/>
			<path id="Path_66" class="st2" d="M427.3,612.9l8.9,35.6c2.1,8.5,10.7,13.6,19.2,11.5l0,0c8.5-2.1,13.6-10.7,11.5-19.2l-5.4-21.4
				"/>
		</g>
	</g>
</g>
</svg>
