<svg xmlns="http://www.w3.org/2000/svg" xmlns:xlink="http://www.w3.org/1999/xlink" width="1080" height="1920" viewBox="0 0 1080 1920">
  <defs>
    <style>
      .cls-1, .cls-12, .cls-15, .cls-16, .cls-3, .cls-5 {
        fill: none;
      }

      .cls-2 {
        clip-path: url(#clip-beforeLearning_popup);
      }

      .cls-3 {
        stroke: #708fa0;
      }

      .cls-12, .cls-15, .cls-16, .cls-3 {
        stroke-linecap: round;
      }

      .cls-3, .cls-5 {
        stroke-miterlimit: 10;
      }

      .cls-16, .cls-3, .cls-5 {
        stroke-width: 8px;
      }

      .cls-10, .cls-18, .cls-4 {
        fill: #fff;
      }

      .cls-5 {
        stroke: #b3b3b3;
      }

      .cls-11, .cls-6, .cls-7 {
        fill: #1c3f55;
      }

      .cls-6 {
        font-size: 66px;
      }

      .cls-10, .cls-6 {
        font-family: Rubik-Bold, Rubik;
        font-weight: 700;
      }

      .cls-8 {
        opacity: 0.2;
      }

      .cls-9 {
        fill: #1de8f7;
      }

      .cls-10 {
        font-size: 44px;
      }

      .cls-11 {
        font-size: 39px;
        font-family: Rubik-Medium, Rubik;
        font-weight: 500;
      }

      .cls-12 {
        stroke: #fff;
        stroke-linejoin: round;
        stroke-width: 5px;
      }

      .cls-13 {
        font-family: Rubik-Regular, Rubik;
        font-weight: 400;
      }

      .cls-14 {
        clip-path: url(#clip-path);
      }

      .cls-15 {
        stroke: #dbdbdb;
        stroke-width: 2px;
        opacity: 0.5;
      }

      .cls-16 {
        stroke: #1c3f55;
      }

      .cls-17 {
        opacity: 0;
      }

      .cls-18 {
        stroke: #707070;
      }

      .cls-19 {
        stroke: none;
      }
    </style>
    <clipPath id="clip-path">
      <rect class="cls-1" width="592.08" height="269"/>
    </clipPath>
    <clipPath id="clip-beforeLearning_popup">
      <rect width="1080" height="1920"/>
    </clipPath>
  </defs>
  <g id="beforeLearning_popup" class="cls-2">
    <rect id="Rectangle_36" data-name="Rectangle 36" width="1080" height="1920"/>
    <g id="Group_321" data-name="Group 321">
      <g id="Group_303" data-name="Group 303" transform="translate(156.707 377.956)">
        <line id="Line_103" data-name="Line 103" class="cls-3" x2="7.729" y2="30.876" transform="translate(143.563 38.421)"/>
        <path id="Path_459" data-name="Path 459" class="cls-3" d="M-2320.259-1098.426l1.83,7.309a9.524,9.524,0,0,1-6.926,11.552h0a9.524,9.524,0,0,1-11.551-6.926l-1.83-7.309-9.031-36.077" transform="translate(2470.558 1163.757)"/>
        <rect id="Rectangle_27" data-name="Rectangle 27" class="cls-4" width="767.274" height="842.049" rx="37.326" transform="translate(0 48.921)"/>
        <path id="Path_460" data-name="Path 460" class="cls-5" d="M-2328.244-1161.541" transform="translate(2487.13 1161.541)"/>
        <g id="Group_302" data-name="Group 302" transform="translate(103.578 0.076)">
          <path id="Path_461" data-name="Path 461" class="cls-3" d="M-2355.848-1091.555l-14.42-57.605a17.065,17.065,0,0,1,12.41-20.7h0a17.065,17.065,0,0,1,20.7,12.41l6.363,25.42" transform="translate(2370.783 1170.371)"/>
          <path id="Path_462" data-name="Path 462" class="cls-3" d="M-2363.374-1117.828l13.548,54.12a24.006,24.006,0,0,0,29.116,17.458h0a24.006,24.006,0,0,0,17.457-29.116l-6.28-24.317" transform="translate(2369.559 1161.69)"/>
        </g>
      </g>
      <text id="ישנם_סוגי_קלפי_מידע" data-name="ישנם סוגי קלפי מידע" class="cls-6" transform="translate(540 584)"><tspan x="-286.77" y="0">ישנם סוגי קלפי מידע</tspan></text>
      <g id="Component_5_17" data-name="Component 5 – 17" transform="translate(381.239 1067.025)">
        <rect id="Rectangle_33" data-name="Rectangle 33" class="cls-7" width="5.166" height="51.901" rx="2.583" transform="translate(269 23)"/>
        <g id="Group_315" data-name="Group 315" class="cls-8">
          <rect id="Rectangle_19" data-name="Rectangle 19" class="cls-9" width="251.166" height="97.901" rx="23"/>
          <text id="הבנתי" class="cls-10" transform="translate(184.761 63.975)"><tspan x="-116.864" y="0">הבנתי</tspan></text>
        </g>
        <text id="_3" data-name="3" class="cls-11" transform="translate(316.761 61.975)"><tspan x="-24.609" y="0">3</tspan></text>
      </g>
      <g id="Group_314" data-name="Group 314" transform="translate(55.17 16)">
        <g id="Group_324" data-name="Group 324" transform="translate(198 686)">
          <circle id="Ellipse_8" data-name="Ellipse 8" class="cls-9" cx="40" cy="40" r="40" transform="translate(-0.17 0)"/>
          <g id="Group_324-2" data-name="Group 324" transform="translate(23.251 20.119)">
            <rect id="Rectangle_38" data-name="Rectangle 38" class="cls-12" width="21.613" height="29.925" rx="2" transform="translate(0 0)"/>
            <path id="Path_463" data-name="Path 463" class="cls-12" d="M471.272,183.468v26.74a3.185,3.185,0,0,1-3.185,3.185H449.66" transform="translate(-438.628 -172.437)"/>
          </g>
        </g>
        <text id="שכבתי_לחץ_כדי_לגלות_עוד_מידע" data-name="שכבתי
לחץ כדי לגלות עוד מידע" class="cls-11" transform="translate(771.83 715.98)"><tspan x="-108.381" y="0"></tspan><tspan y="0">שכבתי</tspan><tspan class="cls-13"><tspan x="-374.946" y="46.8">לחץ כדי לגלות עוד מידע</tspan></tspan></text>
      </g>
      <g id="Group_421" data-name="Group 421" transform="translate(-25 132)">
        <text id="סרטון_לחץ_כדי_לצפות_בסרטון" data-name="סרטון
לחץ כדי לצפות בסרטון" class="cls-11" transform="translate(852 767.98)"><tspan x="-91.884" y="0"></tspan><tspan y="0">סרטון</tspan><tspan class="cls-13"><tspan x="-351.039" y="46.8">לחץ כדי לצפות בסרטון</tspan></tspan></text>
        <g id="Group_504" data-name="Group 504" transform="translate(278.31 738.625)">
          <ellipse id="Ellipse_8-2" data-name="Ellipse 8" class="cls-9" cx="40" cy="39.5" rx="40" ry="39.5" transform="translate(-0.31 0.375)"/>
          <path id="Path_464" data-name="Path 464" class="cls-12" d="M654.866,250.658l-23.2-15.7v31.4Z" transform="translate(-599.031 -210.652)"/>
        </g>
      </g>
      <g id="Repeat_Grid_1" data-name="Repeat Grid 1" class="cls-14" transform="translate(248.307 823.904)">
        <g transform="translate(-248.307 -671.905)">
          <path id="Path_517" data-name="Path 517" class="cls-15" d="M836.239,761.856v590.08" transform="translate(1601.242 -163.335) rotate(90)"/>
        </g>
        <g transform="translate(-248.307 -499.905)">
          <path id="Path_517-2" data-name="Path 517" class="cls-15" d="M836.239,761.856v590.08" transform="translate(1601.242 -163.335) rotate(90)"/>
        </g>
      </g>
      <g id="Group_470" data-name="Group 470" transform="translate(6 2)">
        <g id="Group_440" data-name="Group 440" transform="translate(635.21 575.488)">
          <g id="Group_372" data-name="Group 372" transform="translate(210.043 -107.993) rotate(45)">
            <path id="Path_490" data-name="Path 490" class="cls-16" d="M121.982,53.864H79.814" transform="translate(-79.814 -37.08)"/>
          </g>
          <g id="Group_468" data-name="Group 468" transform="translate(210.043 -107.993) rotate(45)">
            <path id="Path_490-2" data-name="Path 490" class="cls-16" d="M121.982,53.864H79.814" transform="translate(-79.814 -37.08)"/>
          </g>
        </g>
        <g id="Group_469" data-name="Group 469" transform="translate(767.078 281.188) rotate(90)">
          <g id="Group_372-2" data-name="Group 372" transform="translate(210.043 -107.993) rotate(45)">
            <path id="Path_490-3" data-name="Path 490" class="cls-16" d="M121.982,53.864H79.814" transform="translate(-79.814 -37.08)"/>
          </g>
          <g id="Group_468-2" data-name="Group 468" transform="translate(210.043 -107.993) rotate(45)">
            <path id="Path_490-4" data-name="Path 490" class="cls-16" d="M121.982,53.864H79.814" transform="translate(-79.814 -37.08)"/>
          </g>
        </g>
      </g>
      <g id="Group_523" data-name="Group 523" class="cls-17">
        <g id="Rectangle_77" data-name="Rectangle 77" class="cls-18">
          <rect class="cls-19" width="157" height="1920"/>
          <rect class="cls-1" x="0.5" y="0.5" width="156" height="1919"/>
        </g>
        <g id="Rectangle_78" data-name="Rectangle 78" class="cls-18" transform="translate(923)">
          <rect class="cls-19" width="157" height="1920"/>
          <rect class="cls-1" x="0.5" y="0.5" width="156" height="1919"/>
        </g>
        <g id="Rectangle_79" data-name="Rectangle 79" class="cls-18" transform="translate(157)">
          <rect class="cls-19" width="824" height="425"/>
          <rect class="cls-1" x="0.5" y="0.5" width="823" height="424"/>
        </g>
        <g id="Rectangle_80" data-name="Rectangle 80" class="cls-18" transform="translate(157 1275)">
          <rect class="cls-19" width="824" height="645"/>
          <rect class="cls-1" x="0.5" y="0.5" width="823" height="644"/>
        </g>
      </g>
    </g>
  </g>
</svg>
