<svg xmlns="http://www.w3.org/2000/svg" xmlns:xlink="http://www.w3.org/1999/xlink" width="1080" height="1920" viewBox="0 0 1080 1920">
  <defs>
    <style>
      .cls-1 {
        clip-path: url(#clip-choosePractice_popup);
      }

      .cls-12, .cls-14, .cls-15, .cls-19, .cls-2, .cls-4 {
        fill: none;
      }

      .cls-2 {
        stroke: #708fa0;
      }

      .cls-12, .cls-14, .cls-15, .cls-2 {
        stroke-linecap: round;
      }

      .cls-2, .cls-4 {
        stroke-miterlimit: 10;
      }

      .cls-15, .cls-2, .cls-4 {
        stroke-width: 8px;
      }

      .cls-13, .cls-17, .cls-3, .cls-7, .cls-9 {
        fill: #fff;
      }

      .cls-4 {
        stroke: #b3b3b3;
      }

      .cls-10, .cls-5, .cls-8 {
        fill: #1c3f55;
      }

      .cls-5 {
        font-size: 66px;
      }

      .cls-5, .cls-7 {
        font-family: Rubik-Bold, Rubik;
        font-weight: 700;
      }

      .cls-6 {
        fill: #1de8f7;
      }

      .cls-7 {
        font-size: 44px;
      }

      .cls-8 {
        font-size: 52px;
        font-family: Rubik-Medium, Rubik;
        font-weight: 500;
      }

      .cls-13, .cls-14, .cls-9 {
        stroke: #dbdbdb;
      }

      .cls-9 {
        stroke-width: 5px;
      }

      .cls-10 {
        font-size: 35px;
        font-family: Rubik-Regular, Rubik;
      }

      .cls-11 {
        fill: #2be8f7;
        stroke: #2be8f7;
      }

      .cls-11, .cls-13 {
        stroke-width: 4px;
      }

      .cls-12 {
        stroke: #414042;
        stroke-linejoin: round;
        stroke-width: 3px;
      }

      .cls-14 {
        stroke-width: 2px;
        opacity: 0.5;
      }

      .cls-15 {
        stroke: #1c3f55;
      }

      .cls-16 {
        opacity: 0;
      }

      .cls-17 {
        stroke: #707070;
      }

      .cls-18 {
        stroke: none;
      }
    </style>
    <clipPath id="clip-choosePractice_popup">
      <rect width="1080" height="1920"/>
    </clipPath>
  </defs>
  <g id="choosePractice_popup" class="cls-1">
    <rect id="Rectangle_36" data-name="Rectangle 36" width="1080" height="1920"/>
    <g id="Group_321" data-name="Group 321">
      <g id="Group_303" data-name="Group 303" transform="translate(156.707 377.956)">
        <line id="Line_103" data-name="Line 103" class="cls-2" x2="7.729" y2="30.876" transform="translate(143.563 38.421)"/>
        <path id="Path_459" data-name="Path 459" class="cls-2" d="M-2320.259-1098.426l1.83,7.309a9.524,9.524,0,0,1-6.926,11.552h0a9.524,9.524,0,0,1-11.551-6.926l-1.83-7.309-9.031-36.077" transform="translate(2470.558 1163.757)"/>
        <rect id="Rectangle_27" data-name="Rectangle 27" class="cls-3" width="767.274" height="954.339" rx="37.326" transform="translate(0 48.921)"/>
        <path id="Path_460" data-name="Path 460" class="cls-4" d="M-2328.244-1161.541" transform="translate(2487.13 1161.541)"/>
        <g id="Group_302" data-name="Group 302" transform="translate(103.578 0.076)">
          <path id="Path_461" data-name="Path 461" class="cls-2" d="M-2355.848-1091.555l-14.42-57.605a17.065,17.065,0,0,1,12.41-20.7h0a17.065,17.065,0,0,1,20.7,12.41l6.363,25.42" transform="translate(2370.783 1170.371)"/>
          <path id="Path_462" data-name="Path 462" class="cls-2" d="M-2363.374-1117.828l13.548,54.12a24.006,24.006,0,0,0,29.116,17.458h0a24.006,24.006,0,0,0,17.457-29.116l-6.28-24.317" transform="translate(2369.559 1161.69)"/>
        </g>
      </g>
      <text id="בחר_נושאי_תרגול" data-name="בחר נושאי תרגול" class="cls-5" transform="translate(540 584)"><tspan x="-235.059" y="0">בחר נושאי תרגול</tspan></text>
      <g id="Group_451" data-name="Group 451" transform="translate(0 -128.651)">
        <rect id="Rectangle_19" data-name="Rectangle 19" class="cls-6" width="251.166" height="97.901" rx="23" transform="translate(414.239 1329.677)"/>
        <text id="תרגול" class="cls-7" transform="translate(596 1394)"><tspan x="-111.1" y="0">תרגול</tspan></text>
      </g>
      <g id="Component_15_1" data-name="Component 15 – 1" transform="translate(286 669)">
        <g id="Group_458" data-name="Group 458" transform="translate(-286 -669)">
          <text id="נוהל_כשרת_המזון_בשבת" data-name="נוהל כשרת המזון בשבת" class="cls-8" transform="translate(540 718)"><tspan x="-253.916" y="0">נוהל כשרת המזון בשבת</tspan></text>
          <rect id="Rectangle_61" data-name="Rectangle 61" class="cls-9" width="40" height="40" rx="12" transform="translate(816.239 683.025)"/>
        </g>
        <g id="Group_456" data-name="Group 456" transform="translate(-308 -646)">
          <g id="Component_10_1" data-name="Component 10 – 1" transform="translate(567 753)">
            <text id="הנחיות_כלליות" data-name="הנחיות כלליות" class="cls-10" transform="translate(202 33)"><tspan x="-201.705" y="0">הנחיות כלליות</tspan></text>
            <g id="Group_464" data-name="Group 464" transform="translate(-567 -753)">
              <rect id="Rectangle_66" data-name="Rectangle 66" class="cls-11" width="30" height="30" rx="9" transform="translate(786.239 759.025)"/>
              <g id="Group_459" data-name="Group 459" transform="translate(792.643 749.833)">
                <g id="Group_365" data-name="Group 365" transform="translate(1 18)">
                  <path id="Path_474" data-name="Path 474" class="cls-12" d="M16.871,2,5.507,13.364,2,9.857" transform="translate(-2 -2)"/>
                </g>
              </g>
            </g>
          </g>
          <g id="Component_11_1" data-name="Component 11 – 1" transform="translate(334 846)">
            <text id="כלי_המטבח_בשבת_-_ארון_חימום" data-name="כלי המטבח בשבת - ארון חימום" class="cls-10" transform="translate(435 33)"><tspan x="-435.225" y="0">כלי המטבח בשבת - ארון חימום</tspan></text>
            <rect id="Rectangle_63" data-name="Rectangle 63" class="cls-13" width="30" height="30" rx="9" transform="translate(452.239 6.025)"/>
          </g>
          <g id="Component_12_1" data-name="Component 12 – 1" transform="translate(344 940)">
            <text id="כלי_המטבח_בשבת_-_סיר_קיטור" data-name="כלי המטבח בשבת - סיר קיטור" class="cls-10" transform="translate(425 33)"><tspan x="-424.935" y="0">כלי המטבח בשבת - סיר קיטור</tspan></text>
            <rect id="Rectangle_64" data-name="Rectangle 64" class="cls-13" width="30" height="30" rx="9" transform="translate(442.239 5.025)"/>
          </g>
          <g id="Component_13_1" data-name="Component 13 – 1" transform="translate(464 1033)">
            <text id="ניקיון_חדר_אוכל_בשבת" data-name="ניקיון חדר אוכל בשבת" class="cls-10" transform="translate(305 33)"><tspan x="-305.06" y="0">ניקיון חדר אוכל בשבת</tspan></text>
            <rect id="Rectangle_65" data-name="Rectangle 65" class="cls-13" width="30" height="30" rx="9" transform="translate(324.473 3.084) rotate(8)"/>
          </g>
        </g>
      </g>
      <path id="Path_495" data-name="Path 495" class="cls-14" d="M836.239,761.856V1074.95" transform="translate(0 18.502)"/>
      <g id="Group_470" data-name="Group 470" transform="translate(6 2)">
        <g id="Group_440" data-name="Group 440" transform="translate(635.21 575.488)">
          <g id="Group_372" data-name="Group 372" transform="translate(210.043 -107.993) rotate(45)">
            <path id="Path_490" data-name="Path 490" class="cls-15" d="M121.982,53.864H79.814" transform="translate(-79.814 -37.08)"/>
          </g>
          <g id="Group_468" data-name="Group 468" transform="translate(210.043 -107.993) rotate(45)">
            <path id="Path_490-2" data-name="Path 490" class="cls-15" d="M121.982,53.864H79.814" transform="translate(-79.814 -37.08)"/>
          </g>
        </g>
        <g id="Group_469" data-name="Group 469" transform="translate(767.078 281.188) rotate(90)">
          <g id="Group_372-2" data-name="Group 372" transform="translate(210.043 -107.993) rotate(45)">
            <path id="Path_490-3" data-name="Path 490" class="cls-15" d="M121.982,53.864H79.814" transform="translate(-79.814 -37.08)"/>
          </g>
          <g id="Group_468-2" data-name="Group 468" transform="translate(210.043 -107.993) rotate(45)">
            <path id="Path_490-4" data-name="Path 490" class="cls-15" d="M121.982,53.864H79.814" transform="translate(-79.814 -37.08)"/>
          </g>
        </g>
      </g>
    </g>
    <g id="Group_523" data-name="Group 523" class="cls-16">
      <g id="Rectangle_77" data-name="Rectangle 77" class="cls-17">
        <rect class="cls-18" width="157" height="1920"/>
        <rect class="cls-19" x="0.5" y="0.5" width="156" height="1919"/>
      </g>
      <g id="Rectangle_78" data-name="Rectangle 78" class="cls-17" transform="translate(923)">
        <rect class="cls-18" width="157" height="1920"/>
        <rect class="cls-19" x="0.5" y="0.5" width="156" height="1919"/>
      </g>
      <g id="Rectangle_79" data-name="Rectangle 79" class="cls-17" transform="translate(157)">
        <rect class="cls-18" width="824" height="424"/>
        <rect class="cls-19" x="0.5" y="0.5" width="823" height="423"/>
      </g>
      <g id="Rectangle_80" data-name="Rectangle 80" class="cls-17" transform="translate(157 1414)">
        <rect class="cls-18" width="824" height="506"/>
        <rect class="cls-19" x="0.5" y="0.5" width="823" height="505"/>
      </g>
    </g>
  </g>
</svg>
