<svg xmlns="http://www.w3.org/2000/svg" xmlns:xlink="http://www.w3.org/1999/xlink" width="1080" height="3095" viewBox="0 0 1080 3095">
  <defs>
    <style>
      .cls-1, .cls-11, .cls-13, .cls-14, .cls-17, .cls-18, .cls-19, .cls-21, .cls-25, .cls-26, .cls-30, .cls-31, .cls-32, .cls-39, .cls-43, .cls-45, .cls-46, .cls-47, .cls-48, .cls-49, .cls-52, .cls-7, .cls-8 {
        fill: none;
      }

      .cls-1, .cls-2 {
        stroke: #707070;
      }

      .cls-1, .cls-11, .cls-13, .cls-14, .cls-21, .cls-43, .cls-52, .cls-7 {
        stroke-width: 4px;
      }

      .cls-10, .cls-15, .cls-2, .cls-24, .cls-9 {
        fill: #fff;
      }

      .cls-3 {
        clip-path: url(#clip-Home);
      }

      .cls-20, .cls-22, .cls-38, .cls-4 {
        fill: #20c5f2;
      }

      .cls-17, .cls-18, .cls-31, .cls-32, .cls-5 {
        opacity: 0.1;
      }

      .cls-6 {
        clip-path: url(#clip-path);
      }

      .cls-11, .cls-47, .cls-48, .cls-7, .cls-8 {
        stroke: #fff;
      }

      .cls-13, .cls-17, .cls-18, .cls-19, .cls-21, .cls-25, .cls-30, .cls-31, .cls-32, .cls-39, .cls-7 {
        stroke-miterlimit: 10;
      }

      .cls-11, .cls-14, .cls-21, .cls-26, .cls-30, .cls-43, .cls-45, .cls-46, .cls-47, .cls-48, .cls-52, .cls-8 {
        stroke-linecap: round;
      }

      .cls-11, .cls-14, .cls-26, .cls-43, .cls-45, .cls-47, .cls-52, .cls-8 {
        stroke-linejoin: round;
      }

      .cls-17, .cls-18, .cls-8 {
        stroke-width: 5px;
      }

      .cls-9 {
        font-size: 81px;
      }

      .cls-27, .cls-33, .cls-51, .cls-9 {
        font-family: Rubik-Bold, Rubik;
        font-weight: 700;
      }

      .cls-10 {
        font-size: 49px;
      }

      .cls-10, .cls-24, .cls-34 {
        font-family: Rubik-Regular, Rubik;
      }

      .cls-12 {
        fill: #0facd1;
      }

      .cls-13, .cls-14, .cls-21, .cls-25, .cls-26, .cls-30 {
        stroke: #708fa0;
      }

      .cls-16, .cls-40 {
        fill: #1de8f7;
      }

      .cls-17, .cls-31 {
        stroke: #ef4230;
      }

      .cls-18, .cls-32 {
        stroke: #26a6e0;
      }

      .cls-19, .cls-39 {
        stroke: #b3b3b3;
      }

      .cls-19, .cls-30, .cls-47, .cls-48 {
        stroke-width: 8px;
      }

      .cls-20 {
        opacity: 0.15;
      }

      .cls-22, .cls-29, .cls-38, .cls-44 {
        opacity: 0.2;
      }

      .cls-23 {
        fill: #ed2e45;
      }

      .cls-24 {
        font-size: 52px;
      }

      .cls-25, .cls-26, .cls-31, .cls-32, .cls-39 {
        stroke-width: 7px;
      }

      .cls-27, .cls-28, .cls-33, .cls-34, .cls-41, .cls-51 {
        fill: #1c3f55;
      }

      .cls-27 {
        font-size: 66px;
      }

      .cls-29 {
        fill: #27c5f2;
      }

      .cls-33 {
        font-size: 56px;
      }

      .cls-34 {
        font-size: 41px;
      }

      .cls-35 {
        clip-path: url(#clip-path-2);
      }

      .cls-36 {
        opacity: 0.05;
      }

      .cls-37 {
        fill: #282828;
      }

      .cls-38 {
        mix-blend-mode: multiply;
      }

      .cls-38, .cls-40, .cls-44 {
        isolation: isolate;
      }

      .cls-41, .cls-51 {
        font-size: 53px;
      }

      .cls-41 {
        font-family: Rubik-Medium, Rubik;
        font-weight: 500;
      }

      .cls-42 {
        fill: #2be8f7;
      }

      .cls-43 {
        stroke: #414042;
      }

      .cls-45, .cls-46 {
        stroke: #27c5f2;
        stroke-width: 25px;
      }

      .cls-50 {
        fill: url(#linear-gradient);
      }

      .cls-52 {
        stroke: #1c3f55;
      }
    </style>
    <clipPath id="clip-path">
      <rect id="Rectangle_2" data-name="Rectangle 2" class="cls-1" width="1080" height="1920" transform="translate(1080.11 -1996.931)"/>
    </clipPath>
    <clipPath id="clip-path-2">
      <rect id="Rectangle_54" data-name="Rectangle 54" class="cls-2" width="721" height="1187" transform="translate(176 433)"/>
    </clipPath>
    <linearGradient id="linear-gradient" x1="0.486" y1="0.835" x2="0.49" y2="1.343" gradientUnits="objectBoundingBox">
      <stop offset="0" stop-color="#27c5f2" stop-opacity="0"/>
      <stop offset="1" stop-color="#27c5f2"/>
    </linearGradient>
    <clipPath id="clip-Home">
      <rect width="1080" height="3095"/>
    </clipPath>
  </defs>
  <g id="Home" class="cls-3">
    <rect class="cls-15" width="1080" height="3095"/>
    <g id="רקע">
      <path id="Path_32" data-name="Path 32" class="cls-4" d="M0,0H1080V1920H0Z"/>
      <g id="Group_3" data-name="Group 3" class="cls-5" transform="translate(-1080 1997.371)">
        <g id="Group_2" data-name="Group 2" class="cls-6">
          <g id="Group_1" data-name="Group 1">
            <path id="Path_1" data-name="Path 1" class="cls-7" d="M1257.6-450.1c-30.532-116.746-15.984-240.09,2.014-359.412,2.632-17.449,5.574-35.522,15.425-50.162s28.693-24.8,45.368-19.032c20.631,7.143,27.145,32.647,29.93,54.3a1122.165,1122.165,0,0,1-26.2,421.645c-3.425,13.3-9.451,28.853-22.938,31.466-10.827,2.1-21.477-5.992-26.361-15.88s-5.477-21.25-6.688-32.212-3.4-22.454-10.639-30.776"/>
            <path id="Path_2" data-name="Path 2" class="cls-7" d="M1263.765-283.708c-8.964-14.094-49.17-127.112-56.48-194.733s-5.4-135.882-2.16-203.82c4.407-92.332,11.545-185.928,42.883-272.892,8.929-24.78,25.026-52.671,51.349-53.6,24.141-.852,42.027,21.9,52.858,43.491,46.429,92.563,41.859,201.409,36.226,304.81-5.471,100.426-10.971,201.113-27.874,300.257-4.277,25.088-10.016,51.524-27.6,69.926S1272.729-269.614,1263.765-283.708Z"/>
            <path id="Path_3" data-name="Path 3" class="cls-7" d="M1168.568-636.032c3.405-109.235,10.345-218.619,28.244-326.541,7.713-46.5,17.776-93.557,41.167-134.48,12.322-21.557,30.6-42.508,55.161-46.13s48.844,11.784,62.893,32.27,19.9,45.339,25.29,69.589c7.689,34.62,15,69.358,20.255,104.441,2.627,17.522,4.637,35.1,6.144,52.751,1.109,12.974,5.486,25.187,5.728,38.123,1.362,73.022-4.278,144.61,7.057,217.336,8.364,53.666,23.9,106.729,22.893,161.034-.954,51.522-16.779,101.543-34.37,149.978-10.717,29.507-22.145,58.75-33.572,87.99-9.037,23.125-18.565,47.006-36.368,64.311s-46.352,26.182-68.022,14.065c-18.47-10.328-25.954-31.173-33.97-49.463-9.935-22.671-18.353-46.086-26.118-69.583a986.915,986.915,0,0,1-36.765-149.57c-5.46-33.215-11.593-67.715-8.273-101.12C1169.695-558.794,1167.385-598.065,1168.568-636.032Z"/>
            <path id="Path_4" data-name="Path 4" class="cls-7" d="M1336.563-63.338c63.422-102.526,128.185-208.552,147.259-327.59,14.506-90.533,1.568-182.956-11.372-273.726-23.584-165.43-47.251-331.281-89.412-492.977-11.195-42.935-29.585-91.83-72.058-104.668-34.246-10.351-71.971,8.852-93.7,37.272s-30.8,64.29-38.53,99.221c-77.9,351.9-71.451,722.366,20.2,1070.94"/>
            <path id="Path_5" data-name="Path 5" class="cls-7" d="M1440.548-60.076c125.831-179.54,146.322-414.1,119.205-631.663s-96.907-427.48-136.163-643.181c-15.233-83.7-25.741-170.67-5.011-253.182,18.514-73.694,60.658-138.83,92.591-207.778s53.882-148.483,29.308-220.383"/>
            <path id="Path_6" data-name="Path 6" class="cls-7" d="M1558.62-60.766c65.654-141.963,90.308-300.69,86.146-457.044s-36.321-310.856-80.045-461.03c-28.392-97.517-61.763-193.863-80.958-293.6s-23.717-204.392,5.42-301.69c26.057-87.01,77.5-163.795,117.633-245.275s69.529-174.493,47.1-262.509"/>
            <path id="Path_7" data-name="Path 7" class="cls-7" d="M2184.033-395.464c-32.14-91.146-64.545-183.478-73.034-279.75s9.4-198.5,69.05-274.533"/>
            <path id="Path_8" data-name="Path 8" class="cls-7" d="M2166.7-139.508c-151.477-379.231-146.453-818.3,13.66-1193.964"/>
            <path id="Path_9" data-name="Path 9" class="cls-7" d="M2120.036-42.6c-57.412-176.632-115.311-355.826-124.423-541.331-8.2-166.938,23.424-332.89,49.97-497.908,50.7-315.174,81.907-646.339-25.825-946.838"/>
            <path id="Path_10" data-name="Path 10" class="cls-7" d="M2093.03-2018.665c-1.722,111.041,42.765,222.086,120.675,301.225"/>
            <path id="Path_11" data-name="Path 11" class="cls-7" d="M1734.96-2018.852c-12.287,178.86-70.886,353.548-68.1,532.809,1.768,113.981,28.34,225.88,47.534,338.248,64.62,378.317,45.223,770.75-56.39,1140.85"/>
            <path id="Path_12" data-name="Path 12" class="cls-7" d="M1718.292-2009.268c-85,236.3-171.329,482.724-144.526,732.409,16.382,152.609,74.489,297.73,99.982,449.084,45.561,270.5-14.663,546.675-81.237,812.787"/>
            <path id="Path_13" data-name="Path 13" class="cls-7" d="M1745.3-64.817c-7.12-288.268,198.928-559.629,153.036-844.31-32.355-200.705-187.314-374.387-181.832-577.609,5.129-190.133,151.611-358.342,142.313-548.318"/>
            <path id="Path_14" data-name="Path 14" class="cls-7" d="M1818.476-626.02c14.58,6.365,51.629-203.376,20.3-301.713-2.521-7.91-5.442-16.013-11.211-21.983s-15.157-9.225-22.609-5.567c-9.394,4.612-11.313,16.935-11.965,27.38a2265.961,2265.961,0,0,0-2.609,231.159C1791.5-668.609,1803.9-632.386,1818.476-626.02Z"/>
            <path id="Path_15" data-name="Path 15" class="cls-7" d="M1813.417-66.442c26.464-181.286,75.309-358.475,111.167-538.139,48.027-240.642,72.71-485.879,74.8-731.257,2.034-239.4-17.419-478.889-56.008-715.167"/>
            <path id="Path_16" data-name="Path 16" class="cls-7" d="M1857.417-50.912c14.251-53.509,28.549-107.161,48.919-158.652,9.3-23.506,24.881-50.1,50.15-50.829,15.948-.46,30.466,10.522,38.762,24.152s11.538,29.646,14.642,45.3Q2026-109.737,2042.1-28.529"/>
            <path id="Path_17" data-name="Path 17" class="cls-7" d="M1923.532-51.617a512.986,512.986,0,0,1,20.554-139.694c2.36-8.075,6.7-17.587,15.094-18.171,11.164-.777,15.592,14.058,16.092,25.238q3.844,86.108-.691,172.317"/>
            <path id="Path_18" data-name="Path 18" class="cls-7" d="M1911.563-1769.445c58.447.7,19.039,305.237,28.558,457.855,1.465,23.473,2.777,47.914-6.281,69.618s-31.834,39.624-54.894,35.007c-20.035-4.011-33.356-22.694-43.3-40.542a444.744,444.744,0,0,1-51.507-276.076C1797.388-1617.928,1853.115-1770.143,1911.563-1769.445Z"/>
            <path id="Path_19" data-name="Path 19" class="cls-7" d="M1851.473-1319.31a396.34,396.34,0,0,1-33.924-230.583c2.5-16.018,6.175-32.34,15.336-45.715s24.934-23.291,41.028-21.341c17.721,2.147,31.282,18.06,36.27,35.2s3.147,35.426,1.262,53.176q-9.594,90.379-19.19,180.758c-.923,8.694-1.9,17.581-5.653,25.477s-10.882,14.752-19.57,15.736S1851.473-1319.31,1851.473-1319.31Z"/>
            <path id="Path_20" data-name="Path 20" class="cls-7" d="M1060.712-954.877c21.558-112.081,45.07-228.647,114.526-319.217,36.179-47.176,83.276-85.013,120.287-131.539s64.082-107.016,49.842-164.737c-11.433-46.346-46.933-82.161-79.074-117.455-75.092-82.455-139.045-174.847-191.839-273.084"/>
            <path id="Path_21" data-name="Path 21" class="cls-7" d="M1153.026-2042.315c5.409,56.8,25.474,111.426,51.962,161.963s59.369,97.4,92.15,144.1c10.326,14.71,21.4,30.058,37.693,37.632,22.955,10.668,51.141,2.751,70.835-13.152,26.231-21.182,40.109-53.9,50.294-86.044a612.3,612.3,0,0,0,26.256-236.811"/>
          </g>
          <path id="Path_22" data-name="Path 22" class="cls-7" d="M1786.884-1295.337a505.5,505.5,0,0,1-26.37-265.553c11.452-66.817,36.249-130.5,60.9-193.656q28.614-73.323,57.23-146.647c4.393-11.256,10.36-23.965,22.078-26.911,9.978-2.509,20.522,3.632,26.309,12.139s7.843,18.933,9.7,29.051a2298.97,2298.97,0,0,1,8.469,780.276c-3.352,20.756-11.7,46.2-32.586,48.573-20.748,2.358-34.585-20.234-42.888-39.393C1842.037-1161.351,1786.884-1295.337,1786.884-1295.337Z"/>
          <path id="Path_23" data-name="Path 23" class="cls-7" d="M1506.451-67.98C1592.2-275.226,1644.755-503.9,1603-724.268c-21.805-115.068-68.449-223.754-101.15-336.211a1425.442,1425.442,0,0,1-56.6-399.664c.121-74.363,6.333-149.882,32.546-219.473,21.757-57.761,56.581-109.6,82.933-165.417s44.3-119.242,29.235-179.1"/>
          <path id="Path_24" data-name="Path 24" class="cls-7" d="M1056.075-1284.478c19.761-31.374,52.234-52.473,85.369-69.113s68.158-29.966,98.829-50.8,57.371-51.015,63.576-87.571c4.824-28.414-3.336-57.939-17.98-82.762s-35.405-45.465-57.232-64.285c-73.509-63.383-163.594-111.54-215.507-193.552"/>
          <path id="Path_25" data-name="Path 25" class="cls-7" d="M1044.465-1466.812c56.612-1.554,113.625-3.156,168.939-15.309,8.75-1.923,17.591-4.166,25.275-8.773s14.168-11.945,15.762-20.761c1.8-9.969-2.968-20.267-10.212-27.35s-16.678-11.447-26.119-15.121c-57.168-22.246-120.2-23.617-181.473-20.626"/>
          <path id="Path_26" data-name="Path 26" class="cls-7" d="M1236.475-2005.926c2.14,35.07,6.438,70.211,16.57,103.853s26.32,65.869,50.171,91.668c9.619,10.4,21.127,20.063,35.035,22.767,14.613,2.842,30.363-2.87,40.476-13.793s14.6-26.552,12.81-41.329c-3.037-24.995-22.527-46.549-21.963-71.721.8-35.713,41.194-61.541,40.974-97.262"/>
          <path id="Path_27" data-name="Path 27" class="cls-7" d="M1426.489-1950.04a44.52,44.52,0,0,0-17.912,35.285c-.01,9.786,4.7,20.823,14.18,23.263,7.726,1.99,16.02-2.728,20.253-9.49s5.131-15.088,4.965-23.064c-.156-7.472-1.282-15.275-5.653-21.338s-12.769-9.738-19.6-6.7"/>
          <path id="Path_28" data-name="Path 28" class="cls-7" d="M1283.962-2001.935a268.443,268.443,0,0,0-2.857,54.22c.446,9.124,2.053,19.462,9.636,24.555,7.344,4.932,17.634,2.681,24.764-2.556s12.017-12.881,17.507-19.817c7.8-9.86,17.1-18.577,23.813-29.208s10.629-24.06,6.265-35.852"/>
          <path id="Path_29" data-name="Path 29" class="cls-7" d="M1777.012-1078.768a69.518,69.518,0,0,0,1.62,53.871c3.241,7,8.5,14.013,16.1,15.346,5.776,1.012,11.789-1.648,15.815-5.911s6.28-9.932,7.51-15.666a54.887,54.887,0,0,0-7.612-41.008c-4.222-6.466-10.4-12.3-18.042-13.378s-16.387,4.434-16.457,12.155"/>
          <path id="Path_30" data-name="Path 30" class="cls-7" d="M1325.175-1374.136c-8.89,8.079-14.8,19.569-15.4,31.567s4.342,24.318,13.584,31.993c8.73,7.25,20.585,10.158,28.74,18.05,4.98,4.818,8.781,11.583,15.445,13.483,5.24,1.495,11.014-.629,15.06-4.281,7.492-6.761,9.623-17.9,8.219-27.891s-5.8-19.273-9.577-28.63-7.042-19.32-6.005-29.358c.718-6.946,3.381-14.426.028-20.551s-11.552-7.994-18.423-6.709c-13.623,2.548-23.514,14.017-32.253,24.774"/>
          <path id="Path_31" data-name="Path 31" class="cls-7" d="M1933.819-315.24a73.817,73.817,0,0,1-8.392-68.918c4.215-10.6,10.9-20.142,14.468-30.979,2.428-7.385,3.586-15.67,9-21.247a18.382,18.382,0,0,1,22.813-2.293c6.265,4.284,9.18,12.236,9.356,19.824s-1.975,15.01-3.934,22.343-3.758,14.908-2.863,22.445c1.526,12.847,10.662,23.915,11.784,36.8.634,7.283-1.58,14.963-6.722,20.161-6,6.07-15.235,8.08-23.706,7.015s-16.351-4.833-23.818-8.973"/>
        </g>
      </g>
    </g>
    <g id="Group_506" data-name="Group 506" transform="translate(0 -1970)">
      <g id="גלילה" transform="translate(500.329 1693.335)">
        <g id="Group_28" data-name="Group 28">
          <path id="Path_73" data-name="Path 73" class="cls-8" d="M497.555,1741.558l11.091-10.883,11.091,10.883" transform="translate(-497.555 -1730.675)"/>
          <line id="Line_71" data-name="Line 71" class="cls-8" x1="11.091" y1="10.883" transform="translate(0 34.576)"/>
          <line id="Line_72" data-name="Line 72" class="cls-8" x1="11.091" y2="10.883" transform="translate(11.091 34.576)"/>
          <line id="Line_73" data-name="Line 73" class="cls-8" y2="43.7" transform="translate(11.091)"/>
        </g>
        <g id="Group_31" data-name="Group 31" transform="translate(15.317 30.03)">
          <g id="Group_30" data-name="Group 30">
            <g id="Group_29" data-name="Group 29">
              <line id="Line_74" data-name="Line 74" class="cls-8" y2="7.137" transform="translate(29.719 26.241)"/>
              <path id="Path_74" data-name="Path 74" class="cls-8" d="M517.7,1789.419v-34.894a5.621,5.621,0,0,1,5.679-5.556,5.766,5.766,0,0,1,4.007,1.625,5.484,5.484,0,0,1,1.658,3.931v14.084" transform="translate(-499.32 -1748.969)"/>
              <line id="Line_75" data-name="Line 75" class="cls-8" y2="7.216" transform="translate(52.39 30.156)"/>
              <path id="Path_75" data-name="Path 75" class="cls-8" d="M525.087,1780.182l-8.705-8.667a5.726,5.726,0,0,0-8.013,0,5.49,5.49,0,0,0,0,7.863l14.287,14.02,8.11,7.343h39.678v-31.8a5.625,5.625,0,0,0-5.679-5.573,5.7,5.7,0,0,0-4.006,1.625,5.561,5.561,0,0,0-1.658,3.948" transform="translate(-506.711 -1739.732)"/>
              <path id="Path_76" data-name="Path 76" class="cls-8" d="M535.82,1768.142v-5.036a5.624,5.624,0,0,0-5.681-5.558,5.768,5.768,0,0,0-4.006,1.627,5.49,5.49,0,0,0-1.656,3.932v6.6" transform="translate(-494.758 -1743.465)"/>
              <path id="Path_77" data-name="Path 77" class="cls-8" d="M531.258,1777.479v-11.305a5.608,5.608,0,0,1,5.663-5.556,5.7,5.7,0,0,1,4.006,1.625,5.553,5.553,0,0,1,1.658,3.931v5.479" transform="translate(-490.195 -1741.497)"/>
            </g>
          </g>
        </g>
      </g>
      <g id="טקסט">
        <g id="כותרת" transform="translate(0.001 -59.541)">
          <text id="הכשרות_במטבחי_צה_ל" data-name="הכשרות במטבחי צה״ל" class="cls-9" transform="translate(539.999 384.541)"><tspan x="-388.8" y="0">הכשרות במטבחי צה״ל</tspan></text>
          <text id="בלמ_ס" data-name="בלמ״ס" class="cls-10" transform="translate(539.999 221.541)"><tspan x="-65.881" y="0">בלמ״ס</tspan></text>
          <line id="Line_1" data-name="Line 1" class="cls-11" x2="55.104" transform="translate(512.448 248.91)"/>
        </g>
      </g>
      <g id="גרפיקה" transform="translate(0.352 -68.039)">
        <g id="Group_10" data-name="Group 10">
          <g id="Group_6" data-name="Group 6">
            <path id="Path_33" data-name="Path 33" class="cls-12" d="M852.314,1243.838l146.562-67.625c6.338-2.924,11.476-12,11.476-20.261V836.137c-.672-15.373-14.269-24.092-22.959-19.349l-135.079,77.3c-6.338,2.925-11.476,12-11.476,20.262l-10.169,311.261C830.59,1234.5,844.8,1247.137,852.314,1243.838Z"/>
            <line id="Line_2" data-name="Line 2" class="cls-13" x1="2.642" y2="14.987" transform="translate(959.738 824.82)"/>
            <path id="Path_34" data-name="Path 34" class="cls-14" d="M959.2,838.29l-.626,3.548c-.437,2.477.624,4.294,2.368,4.058h0c1.745-.235,3.513-2.434,3.949-4.91l.626-3.548,3.088-17.511"/>
            <path id="Path_35" data-name="Path 35" class="cls-15" d="M842.066,1233.59l146.562-67.625c6.338-2.924,11.476-12,11.476-20.261V825.889c0-8.266-5.138-12.6-11.476-9.671L842.066,883.842c-6.338,2.925-11.476,12-11.476,20.262v319.814C830.59,1232.184,835.728,1236.514,842.066,1233.59Z"/>
            <path id="Path_36" data-name="Path 36" class="cls-16" d="M988.628,1165.965h0c6.338-2.924,11.476-12,11.476-20.261V825.889c0-8.266-5.138-12.6-11.476-9.671h0Z"/>
            <g id="Group_4" data-name="Group 4">
              <line id="Line_3" data-name="Line 3" class="cls-17" x1="158.038" y2="72.92" transform="translate(830.59 839.962)"/>
              <line id="Line_4" data-name="Line 4" class="cls-18" x1="158.038" y2="72.92" transform="translate(830.59 867.322)"/>
              <line id="Line_5" data-name="Line 5" class="cls-18" x1="158.038" y2="72.92" transform="translate(830.59 894.683)"/>
              <line id="Line_6" data-name="Line 6" class="cls-18" x1="158.038" y2="72.92" transform="translate(830.59 922.044)"/>
              <line id="Line_7" data-name="Line 7" class="cls-18" x1="158.038" y2="72.92" transform="translate(830.59 949.404)"/>
              <line id="Line_8" data-name="Line 8" class="cls-18" x1="158.038" y2="72.92" transform="translate(830.59 976.765)"/>
              <line id="Line_9" data-name="Line 9" class="cls-18" x1="158.038" y2="72.92" transform="translate(830.59 1004.126)"/>
              <line id="Line_10" data-name="Line 10" class="cls-18" x1="158.038" y2="72.92" transform="translate(830.59 1031.486)"/>
              <line id="Line_11" data-name="Line 11" class="cls-18" x1="158.038" y2="72.92" transform="translate(830.59 1058.847)"/>
              <line id="Line_12" data-name="Line 12" class="cls-18" x1="158.038" y2="72.92" transform="translate(830.59 1086.208)"/>
              <line id="Line_13" data-name="Line 13" class="cls-18" x1="158.038" y2="72.92" transform="translate(830.59 1113.568)"/>
              <line id="Line_14" data-name="Line 14" class="cls-18" x1="158.038" y2="72.92" transform="translate(830.59 1140.929)"/>
            </g>
            <path id="Path_37" data-name="Path 37" class="cls-19" d="M965,813.023"/>
            <g id="Group_5" data-name="Group 5">
              <path id="Path_38" data-name="Path 38" class="cls-13" d="M970.945,838.915l4.93-27.961c.783-4.437-1.117-7.692-4.242-7.271h0c-3.126.422-6.294,4.361-7.077,8.8l-2.175,12.338"/>
              <path id="Path_39" data-name="Path 39" class="cls-14" d="M973.937,821.949,969.3,848.218c-1.1,6.242-5.558,11.784-9.955,12.377h0c-4.4.594-7.069-3.986-5.969-10.228l2.785-15.8"/>
            </g>
          </g>
          <g id="Group_9" data-name="Group 9">
            <path id="Path_40" data-name="Path 40" class="cls-12" d="M227.686,1099.95,81.124,1032.325c-6.338-2.924-11.476-12-11.476-20.261V692.249c0-10.856,13.226-24.9,22.959-19.349l135.079,77.3c6.338,2.925,11.476,12,11.476,20.262l5.822,314.908C244.984,1093.638,235.2,1103.249,227.686,1099.95Z"/>
            <line id="Line_15" data-name="Line 15" class="cls-14" x2="2.642" y2="14.987" transform="translate(117.619 680.932)"/>
            <path id="Path_41" data-name="Path 41" class="cls-14" d="M120.805,694.4l.626,3.548c.437,2.477-.624,4.294-2.368,4.058h0c-1.745-.235-3.513-2.434-3.949-4.91l-.626-3.548L111.4,676.039"/>
            <path id="Path_42" data-name="Path 42" class="cls-15" d="M237.934,1089.7,91.372,1022.077c-6.338-2.924-11.476-12-11.476-20.261V682c0-8.266,5.138-12.6,11.476-9.671l146.562,67.624c6.338,2.925,11.476,12,11.476,20.262V1080.03C249.41,1088.3,244.272,1092.626,237.934,1089.7Z"/>
            <path id="Path_43" data-name="Path 43" class="cls-16" d="M91.372,1022.077h0c-6.338-2.924-11.476-12-11.476-20.261V682c0-8.266,5.138-12.6,11.476-9.671h0Z"/>
            <g id="Group_7" data-name="Group 7">
              <line id="Line_16" data-name="Line 16" class="cls-17" x2="158.038" y2="72.92" transform="translate(91.372 696.074)"/>
              <line id="Line_17" data-name="Line 17" class="cls-18" x2="158.038" y2="72.92" transform="translate(91.372 723.434)"/>
              <line id="Line_18" data-name="Line 18" class="cls-18" x2="158.038" y2="72.92" transform="translate(91.372 750.795)"/>
              <line id="Line_19" data-name="Line 19" class="cls-18" x2="158.038" y2="72.92" transform="translate(91.372 778.156)"/>
              <line id="Line_20" data-name="Line 20" class="cls-18" x2="158.038" y2="72.92" transform="translate(91.372 805.516)"/>
              <line id="Line_21" data-name="Line 21" class="cls-18" x2="158.038" y2="72.92" transform="translate(91.372 832.877)"/>
              <line id="Line_22" data-name="Line 22" class="cls-18" x2="158.038" y2="72.92" transform="translate(91.372 860.238)"/>
              <line id="Line_23" data-name="Line 23" class="cls-18" x2="158.038" y2="72.92" transform="translate(91.372 887.598)"/>
              <line id="Line_24" data-name="Line 24" class="cls-18" x2="158.038" y2="72.92" transform="translate(91.372 914.959)"/>
              <line id="Line_25" data-name="Line 25" class="cls-18" x2="158.038" y2="72.92" transform="translate(91.372 942.32)"/>
              <line id="Line_26" data-name="Line 26" class="cls-18" x2="158.038" y2="72.92" transform="translate(91.372 969.68)"/>
              <line id="Line_27" data-name="Line 27" class="cls-18" x2="158.038" y2="72.92" transform="translate(91.372 997.041)"/>
            </g>
            <path id="Path_44" data-name="Path 44" class="cls-19" d="M115,669.135"/>
            <g id="Group_8" data-name="Group 8">
              <path id="Path_45" data-name="Path 45" class="cls-14" d="M109.055,695.027l-4.93-27.961c-.783-4.437,1.117-7.692,4.242-7.27h0c3.126.421,6.294,4.36,7.077,8.8l2.175,12.338"/>
              <path id="Path_46" data-name="Path 46" class="cls-14" d="M106.063,678.061l4.632,26.269c1.1,6.242,5.558,11.784,9.955,12.377h0c4.4.594,7.069-3.986,5.969-10.228l-2.785-15.8"/>
            </g>
          </g>
        </g>
        <g id="Group_17" data-name="Group 17">
          <g id="Group_13" data-name="Group 13">
            <path id="Path_47" data-name="Path 47" class="cls-12" d="M676.421,1001.616l205.12-37.04c8.87-1.6,16.061-10.893,16.061-20.752V562.346c0-12.949-13.7-27.144-25.86-24.074L676.421,584.434c-8.87,1.6-16.061,10.893-16.061,20.752l-8.744,373.337C651.616,988.383,665.908,1003.315,676.421,1001.616Z"/>
            <path id="Path_48" data-name="Path 48" class="cls-20" d="M679.236,1013.088,889.43,975.132c9.09-1.641,16.459-11.162,16.459-21.266V562.952c0-13.27-14.036-27.815-26.5-24.67l-200.153,47.3c-9.089,1.641-16.458,11.163-16.458,21.266l-8.961,382.572C653.817,999.528,668.464,1014.829,679.236,1013.088Z"/>
            <line id="Line_28" data-name="Line 28" class="cls-13" x1="3.698" y2="17.09" transform="translate(832.364 540.531)"/>
            <path id="Path_49" data-name="Path 49" class="cls-21" d="M831.6,555.649l-.876,4.046c-.611,2.824.873,5.307,3.315,5.545h0c2.441.239,4.916-1.857,5.527-4.682l.875-4.045,4.322-19.969"/>
            <path id="Path_50" data-name="Path 50" class="cls-15" d="M667.677,992.3,872.8,955.264c8.871-1.6,16.061-10.893,16.061-20.753V553.034c0-9.86-7.19-16.554-16.061-14.952L667.677,575.121c-8.871,1.6-16.061,10.893-16.061,20.753V977.352C651.616,987.211,658.806,993.906,667.677,992.3Z"/>
            <path id="Path_51" data-name="Path 51" class="cls-16" d="M872.8,955.264h0c8.871-1.6,16.061-10.893,16.061-20.753V553.034c0-9.86-7.19-16.554-16.061-14.952h0Z"/>
            <g id="Group_11" data-name="Group 11">
              <line id="Line_29" data-name="Line 29" class="cls-17" x1="221.181" y2="39.94" transform="translate(651.616 566.404)"/>
              <line id="Line_30" data-name="Line 30" class="cls-18" x1="221.181" y2="39.94" transform="translate(651.616 599.04)"/>
              <line id="Line_31" data-name="Line 31" class="cls-18" x1="221.181" y2="39.94" transform="translate(651.616 631.676)"/>
              <line id="Line_32" data-name="Line 32" class="cls-18" x1="221.181" y2="39.94" transform="translate(651.616 664.312)"/>
              <line id="Line_33" data-name="Line 33" class="cls-18" x1="221.181" y2="39.94" transform="translate(651.616 696.948)"/>
              <line id="Line_34" data-name="Line 34" class="cls-18" x1="221.181" y2="39.94" transform="translate(651.616 729.584)"/>
              <line id="Line_35" data-name="Line 35" class="cls-18" x1="221.181" y2="39.94" transform="translate(651.616 762.22)"/>
              <line id="Line_36" data-name="Line 36" class="cls-18" x1="221.181" y2="39.94" transform="translate(651.616 794.856)"/>
              <line id="Line_37" data-name="Line 37" class="cls-18" x1="221.181" y2="39.94" transform="translate(651.616 827.492)"/>
              <line id="Line_38" data-name="Line 38" class="cls-18" x1="221.181" y2="39.94" transform="translate(651.616 860.128)"/>
              <line id="Line_39" data-name="Line 39" class="cls-18" x1="221.181" y2="39.94" transform="translate(651.616 892.764)"/>
              <line id="Line_40" data-name="Line 40" class="cls-18" x1="221.181" y2="39.94" transform="translate(651.616 925.401)"/>
            </g>
            <path id="Path_52" data-name="Path 52" class="cls-19" d="M839.73,527.239"/>
            <g id="Group_12" data-name="Group 12">
              <path id="Path_53" data-name="Path 53" class="cls-13" d="M848.048,559.892l6.9-31.884c1.1-5.06-1.563-9.509-5.938-9.936h0c-4.374-.427-8.808,3.329-9.9,8.389l-3.045,14.07"/>
              <path id="Path_54" data-name="Path 54" class="cls-21" d="M852.235,540.545,845.753,570.5c-1.541,7.119-7.778,12.4-13.932,11.8h0c-6.154-.6-9.894-6.859-8.354-13.977l3.9-18.012"/>
            </g>
          </g>
          <g id="Group_16" data-name="Group 16">
            <path id="Path_55" data-name="Path 55" class="cls-12" d="M393.275,1401.828l-205.12-37.04c-8.87-1.6-16.061-10.893-16.061-20.753V962.558c0-12.95,13.7-27.144,25.86-24.074l195.321,46.161c8.87,1.6,16.061,10.893,16.061,20.753l8.744,373.337C418.08,1388.595,403.788,1403.527,393.275,1401.828Z"/>
            <path id="Path_56" data-name="Path 56" class="cls-20" d="M390.892,1401.825l-209.811-37.887c-9.073-1.638-16.428-11.142-16.428-21.227v-390.2c0-13.246,14.01-27.765,26.451-24.625L390.892,975.1c9.073,1.639,16.428,11.142,16.428,21.227l8.945,381.876C416.265,1388.289,401.645,1403.562,390.892,1401.825Z"/>
            <line id="Line_41" data-name="Line 41" class="cls-13" x2="3.698" y2="17.09" transform="translate(233.634 940.742)"/>
            <path id="Path_57" data-name="Path 57" class="cls-14" d="M238.093,955.861l.876,4.046c.611,2.824-.873,5.306-3.315,5.545h0c-2.441.238-4.916-1.858-5.527-4.682l-.875-4.046-4.322-19.968"/>
            <path id="Path_58" data-name="Path 58" class="cls-15" d="M402.019,1392.515,196.9,1355.476c-8.871-1.6-16.061-10.893-16.061-20.753V953.245c0-9.859,7.19-16.554,16.061-14.952l205.119,37.04c8.871,1.6,16.061,10.893,16.061,20.753v381.477C418.08,1387.423,410.89,1394.117,402.019,1392.515Z"/>
            <path id="Path_59" data-name="Path 59" class="cls-16" d="M196.9,1355.476h0c-8.871-1.6-16.061-10.893-16.061-20.753V953.245c0-9.859,7.19-16.554,16.061-14.952h0Z"/>
            <g id="Group_14" data-name="Group 14">
              <line id="Line_42" data-name="Line 42" class="cls-17" x2="221.181" y2="39.94" transform="translate(196.9 966.615)"/>
              <line id="Line_43" data-name="Line 43" class="cls-18" x2="221.181" y2="39.94" transform="translate(196.9 999.251)"/>
              <line id="Line_44" data-name="Line 44" class="cls-18" x2="221.181" y2="39.94" transform="translate(196.9 1031.887)"/>
              <line id="Line_45" data-name="Line 45" class="cls-18" x2="221.181" y2="39.94" transform="translate(196.9 1064.524)"/>
              <line id="Line_46" data-name="Line 46" class="cls-18" x2="221.181" y2="39.94" transform="translate(196.9 1097.16)"/>
              <line id="Line_47" data-name="Line 47" class="cls-18" x2="221.181" y2="39.94" transform="translate(196.9 1129.796)"/>
              <line id="Line_48" data-name="Line 48" class="cls-18" x2="221.181" y2="39.94" transform="translate(196.9 1162.432)"/>
              <line id="Line_49" data-name="Line 49" class="cls-18" x2="221.181" y2="39.94" transform="translate(196.9 1195.068)"/>
              <line id="Line_50" data-name="Line 50" class="cls-18" x2="221.181" y2="39.94" transform="translate(196.9 1227.704)"/>
              <line id="Line_51" data-name="Line 51" class="cls-18" x2="221.181" y2="39.94" transform="translate(196.9 1260.34)"/>
              <line id="Line_52" data-name="Line 52" class="cls-18" x2="221.181" y2="39.94" transform="translate(196.9 1292.976)"/>
              <line id="Line_53" data-name="Line 53" class="cls-18" x2="221.181" y2="39.94" transform="translate(196.9 1325.612)"/>
            </g>
            <path id="Path_60" data-name="Path 60" class="cls-19" d="M229.966,927.451"/>
            <g id="Group_15" data-name="Group 15">
              <path id="Path_61" data-name="Path 61" class="cls-14" d="M221.648,960.1l-6.9-31.885c-1.1-5.06,1.563-9.508,5.938-9.935h0c4.374-.427,8.808,3.328,9.9,8.388l3.045,14.07"/>
              <path id="Path_62" data-name="Path 62" class="cls-14" d="M217.461,940.757l6.482,29.955c1.541,7.118,7.778,12.4,13.932,11.8h0c6.154-.6,9.894-6.859,8.354-13.978l-3.9-18.011"/>
            </g>
          </g>
        </g>
        <g id="Group_20" data-name="Group 20">
          <rect id="Rectangle_3" data-name="Rectangle 3" class="cls-22" width="353.946" height="547.122" rx="15" transform="translate(363.027 606.328)"/>
          <rect id="Rectangle_4" data-name="Rectangle 4" class="cls-12" width="324.475" height="516.013" rx="15" transform="translate(377.762 626.275)"/>
          <line id="Line_54" data-name="Line 54" class="cls-13" x2="5.085" y2="20.312" transform="translate(449.5 609.315)"/>
          <path id="Path_63" data-name="Path 63" class="cls-14" d="M455.63,627.019l1.2,4.809a6.265,6.265,0,0,1-4.557,7.6h0a6.266,6.266,0,0,1-7.6-4.556l-1.2-4.809-5.941-23.734"/>
          <rect id="Rectangle_5" data-name="Rectangle 5" class="cls-15" width="326.173" height="516.013" rx="15" transform="translate(376.914 614.49)"/>
          <path id="Rectangle_6" data-name="Rectangle 6" class="cls-16" d="M15,0h7.082a0,0,0,0,1,0,0V516.013a0,0,0,0,1,0,0H15a15,15,0,0,1-15-15V15A15,15,0,0,1,15,0Z" transform="translate(376.914 614.49)"/>
          <g id="Group_18" data-name="Group 18">
            <line id="Line_55" data-name="Line 55" class="cls-17" x2="304.091" transform="translate(398.995 649.522)"/>
            <line id="Line_56" data-name="Line 56" class="cls-18" x2="304.091" transform="translate(398.995 689.89)"/>
            <line id="Line_57" data-name="Line 57" class="cls-18" x2="304.091" transform="translate(398.995 730.257)"/>
            <line id="Line_58" data-name="Line 58" class="cls-18" x2="304.091" transform="translate(398.995 770.625)"/>
            <line id="Line_59" data-name="Line 59" class="cls-18" x2="304.091" transform="translate(398.995 810.992)"/>
            <line id="Line_60" data-name="Line 60" class="cls-18" x2="304.091" transform="translate(398.995 851.36)"/>
            <line id="Line_61" data-name="Line 61" class="cls-18" x2="304.091" transform="translate(398.995 891.727)"/>
            <line id="Line_62" data-name="Line 62" class="cls-18" x2="304.091" transform="translate(398.995 932.095)"/>
            <line id="Line_63" data-name="Line 63" class="cls-18" x2="304.091" transform="translate(398.995 972.463)"/>
            <line id="Line_64" data-name="Line 64" class="cls-18" x2="304.091" transform="translate(398.995 1012.83)"/>
            <line id="Line_65" data-name="Line 65" class="cls-18" x2="304.091" transform="translate(398.995 1053.198)"/>
            <line id="Line_66" data-name="Line 66" class="cls-18" x2="304.091" transform="translate(398.995 1093.565)"/>
          </g>
          <path id="Path_64" data-name="Path 64" class="cls-19" d="M444.457,593.694"/>
          <g id="Group_19" data-name="Group 19">
            <path id="Path_65" data-name="Path 65" class="cls-14" d="M433.02,635.941l-9.486-37.9a11.226,11.226,0,0,1,8.164-13.616h0a11.226,11.226,0,0,1,13.615,8.164l4.187,16.723"/>
            <path id="Path_66" data-name="Path 66" class="cls-14" d="M427.264,612.945l8.912,35.6a15.793,15.793,0,0,0,19.155,11.485h0a15.793,15.793,0,0,0,11.485-19.155l-5.359-21.408"/>
          </g>
        </g>
        <circle id="Ellipse_1" data-name="Ellipse 1" class="cls-23" cx="11.53" cy="11.53" r="11.53" transform="translate(369.167 606.998)"/>
        <ellipse id="Ellipse_2" data-name="Ellipse 2" class="cls-23" cx="9.365" cy="6.65" rx="9.365" ry="6.65" transform="matrix(0.503, -0.864, 0.864, 0.503, 874.662, 546.726)"/>
        <ellipse id="Ellipse_3" data-name="Ellipse 3" class="cls-23" cx="4.916" cy="7.04" rx="4.916" ry="7.04" transform="translate(75.403 668.45) rotate(-18.251)"/>
      </g>
      <text id="למדו_את_נושאי_השיעור_השונים_וברגע_שתרגישו_מוכנים_-_בחנו_את_עצמכם" data-name="למדו את נושאי השיעור השונים
וברגע שתרגישו מוכנים - בחנו את עצמכם" class="cls-24" transform="translate(540 1503)"><tspan x="-313.144" y="0"></tspan><tspan y="0">למדו את נושאי השיעור השונים</tspan><tspan x="-425.152" y="62">וברגע שתרגישו מוכנים - בחנו את עצמכם</tspan></text>
      <g id="Group_508" data-name="Group 508" transform="translate(-1102)">
        <g id="Group_507" data-name="Group 507">
          <g id="Group_47" data-name="Group 47" transform="translate(2)">
            <g id="Group_33" data-name="Group 33" transform="translate(-9.095 46.473)">
              <line id="Line_76" data-name="Line 76" class="cls-25" x2="5.643" y2="22.544" transform="translate(444.744 60.459)"/>
              <path id="Path_78" data-name="Path 78" class="cls-26" d="M235.412,81.92l1.336,5.337a6.952,6.952,0,0,1-5.057,8.433h0a6.954,6.954,0,0,1-8.434-5.057L221.921,85.3l-6.594-26.341" transform="translate(214.871 0.658)"/>
              <rect id="Rectangle_7" data-name="Rectangle 7" class="cls-15" width="305.357" height="124.787" rx="25" transform="translate(394.262 78.055)"/>
              <text id="אודות" class="cls-27" transform="translate(547.095 163.527)"><tspan x="-82.467" y="0">אודות</tspan></text>
              <g id="Group_32" data-name="Group 32" transform="translate(415.549 32.462)">
                <path id="Path_79" data-name="Path 79" class="cls-26" d="M211.938,90.009l-10.529-42.06a12.459,12.459,0,0,1,9.061-15.111h0A12.459,12.459,0,0,1,225.582,41.9l4.646,18.56" transform="translate(-201.033 -32.462)"/>
                <path id="Path_80" data-name="Path 80" class="cls-26" d="M205.44,63.711l9.892,39.516a17.527,17.527,0,0,0,21.258,12.746h0a17.528,17.528,0,0,0,12.747-21.258L245.23,78.307" transform="translate(-200.924 -31.686)"/>
              </g>
            </g>
          </g>
          <g id="Group_415" data-name="Group 415" transform="translate(2 1582)">
            <g id="Group_33-2" data-name="Group 33" transform="translate(-9.095 46.473)">
              <rect id="Rectangle_7-2" data-name="Rectangle 7" class="cls-15" width="181.357" height="124.787" rx="25" transform="translate(456.262 78.055)"/>
              <g id="Group_416" data-name="Group 416" transform="translate(-2326.773 83.24)">
                <path id="Path_6-2" data-name="Path 6" class="cls-28" d="M2812,66.249c.278-1.363.51-2.738.842-4.088a20.322,20.322,0,0,1,4.366-8.407,26.88,26.88,0,0,1,12.487-8.239.9.9,0,0,1,1.084.274c2.5,2.6,4.978,5.221,7.535,7.764a52.666,52.666,0,0,0,9.291,7.694,44.886,44.886,0,0,0,9.51,4.523c.1-.435.206-.84.29-1.251a13.828,13.828,0,0,1,22.414-7.983,14.772,14.772,0,0,1,5.221,8.812,2.219,2.219,0,0,0,.084.217,47.823,47.823,0,0,0,8.485-4.032,38.115,38.115,0,0,0,7.869-6.35c3.559-3.635,7.156-7.236,10.708-10.884,3.175-3.264,6.313-6.567,9.457-9.861q3.877-4.063,7.731-8.147c.139-.148.262-.312.47-.557l-1.933-.645c2.2-.707,4.255-1.368,6.308-2.02.5-.159,1.012-.289,1.518-.433a2,2,0,0,1-.018.347q-.656,3.049-1.323,6.1c-.1.466-.215.928-.358,1.549l-.749-1.737-16.912,18.158c.2.1.422.214.643.331a26.913,26.913,0,0,1,7.731,6.052,21.653,21.653,0,0,1,5.314,12.064,23.942,23.942,0,0,1-.818,9.685,22.591,22.591,0,0,1-8.531,11.949,23.974,23.974,0,0,1-11.426,4.541c-.63.075-1.257.179-1.887.27h-2.36c-.2-.044-.393-.1-.594-.133-1.178-.179-2.373-.272-3.53-.537a24.213,24.213,0,0,1-13.395-8.038,21.782,21.782,0,0,1-4.834-9.833c-.156-.753-.291-1.511-.439-2.274a45.051,45.051,0,0,1-22.29.128c-.029.331-.042.6-.078.868a8.106,8.106,0,0,1-.137.811,23.3,23.3,0,0,1-9.106,14.166,24.017,24.017,0,0,1-11.417,4.572c-.605.075-1.209.179-1.812.27h-2.5a4.4,4.4,0,0,0-.521-.13c-1.136-.155-2.3-.2-3.4-.466A24.062,24.062,0,0,1,2814.6,78.978a17.116,17.116,0,0,1-2.2-7.1c-.057-.955-.261-1.9-.4-2.848Zm20.215-13.005c-1.14-1.2-2.192-2.333-3.276-3.427-.111-.11-.464-.077-.652.007a21.869,21.869,0,0,0-9.335,7.415,18.938,18.938,0,0,0-3.08,14.669,18.738,18.738,0,0,0,7.557,12.164,20.923,20.923,0,0,0,29.5-4.183,19.805,19.805,0,0,0,3.617-9.243.526.526,0,0,0-.186-.449c-1.4-.546-2.808-1.061-4.264-1.6-.082.74-.133,1.445-.241,2.141a14.9,14.9,0,0,1-5.6,9.645,15.674,15.674,0,0,1-13.646,3.2,15.368,15.368,0,0,1-9.408-6.05,15.066,15.066,0,0,1-2.866-11.437,14.694,14.694,0,0,1,3.425-7.612A15.773,15.773,0,0,1,2832.217,53.243ZM2885.6,70.177c.364,1.54.63,3.149,1.133,4.675a18.554,18.554,0,0,0,5.879,8.5A20.976,20.976,0,0,0,2904.4,88.3a20.185,20.185,0,0,0,10.639-1.9,19.627,19.627,0,0,0,11.56-20.368,17.987,17.987,0,0,0-1.6-5.864,21.53,21.53,0,0,0-10.025-9.879c-1.273-.661-1.28-.643-2.313.384-.813.8-1.631,1.6-2.514,2.468.309.1.479.155.654.2a15.328,15.328,0,0,1,6.445,3.544,15.082,15.082,0,0,1,5.029,13.176,14.614,14.614,0,0,1-4.417,9.185,15.57,15.57,0,0,1-14.941,4.311,15.159,15.159,0,0,1-11.62-10.345,38.077,38.077,0,0,1-1.034-4.936Zm-14.719-2.07c.921-.06,1.849-.064,2.76-.192q3.6-.5,7.188-1.094c.82-.135.9-.314.707-1.1a11.205,11.205,0,0,0-4.143-6.633,10.112,10.112,0,0,0-8.281-2.039c-4.8,1.005-7.758,4.3-8.493,9.183a.543.543,0,0,0,.5.716A48.877,48.877,0,0,0,2870.88,68.107Z" transform="translate(-0.002 2.636)"/>
                <path id="Path_7-2" data-name="Path 7" class="cls-28" d="M2823.563,40.238l-3.049-3.056c21.159-21.5,57.871-23.063,80.839-.086l-3.036,3.038c-10.332-9.932-22.768-15.248-37.3-15.253S2834.054,30.173,2823.563,40.238Z" transform="translate(10.294 0)"/>
                <path id="Path_8-2" data-name="Path 8" class="cls-28" d="M2827.042,42.012l-3.071-3.074a46.637,46.637,0,0,1,65.668-.049l-3.106,3.067a42.345,42.345,0,0,0-59.49.055Z" transform="translate(14.476 5.979)"/>
                <path id="Path_9-2" data-name="Path 9" class="cls-28" d="M2830.814,44.015l-3.077-3.067c12.76-13.213,35.335-13.942,49.059-.022l-3.082,3.085A30.391,30.391,0,0,0,2830.814,44.015Z" transform="translate(19.031 12.465)"/>
                <path id="Path_10-2" data-name="Path 10" class="cls-28" d="M2842.467,60.254l-6.492-11.24a45.094,45.094,0,0,0,13.1-.21Z" transform="translate(28.998 34.29)"/>
              </g>
            </g>
          </g>
          <g id="Group_303" data-name="Group 303" transform="translate(2601.614 1431.667)">
            <rect id="Rectangle_52" data-name="Rectangle 52" class="cls-29" width="857.461" height="1077.331" rx="37.326" transform="translate(-2490.614 -1135.548)"/>
            <line id="Line_103" data-name="Line 103" class="cls-30" x2="8.214" y2="32.815" transform="translate(-2317.035 -1120.707)"/>
            <path id="Path_459" data-name="Path 459" class="cls-30" d="M-2318.532-1096.451l1.945,7.769a10.123,10.123,0,0,1-7.361,12.277h0a10.122,10.122,0,0,1-12.277-7.361l-1.944-7.768-9.6-38.343" transform="translate(8.655 4.344)"/>
            <rect id="Rectangle_27" data-name="Rectangle 27" class="cls-15" width="815.461" height="1328.331" rx="37.326" transform="translate(-2469.614 -1109.548)"/>
            <path id="Rectangle_28" data-name="Rectangle 28" class="cls-16" d="M37.326,0h7.259a0,0,0,0,1,0,0V1328.331a0,0,0,0,1,0,0H37.326A37.326,37.326,0,0,1,0,1291V37.326A37.326,37.326,0,0,1,37.326,0Z" transform="translate(-2469.614 -1109.548)"/>
            <g id="Group_301" data-name="Group 301" transform="translate(-2425.028 -1021.965)">
              <line id="Line_104" data-name="Line 104" class="cls-31" x2="770.875"/>
              <line id="Line_105" data-name="Line 105" class="cls-32" x2="770.875" transform="translate(0 79.065)"/>
              <line id="Line_106" data-name="Line 106" class="cls-32" x2="770.875" transform="translate(0 158.13)"/>
              <line id="Line_107" data-name="Line 107" class="cls-32" x2="770.875" transform="translate(0 237.196)"/>
              <line id="Line_108" data-name="Line 108" class="cls-32" x2="770.875" transform="translate(0 316.261)"/>
              <line id="Line_109" data-name="Line 109" class="cls-32" x2="770.875" transform="translate(0 395.326)"/>
              <line id="Line_110" data-name="Line 110" class="cls-32" x2="770.875" transform="translate(0 474.391)"/>
              <line id="Line_111" data-name="Line 111" class="cls-32" x2="770.875" transform="translate(0 553.457)"/>
              <line id="Line_112" data-name="Line 112" class="cls-32" x2="770.875" transform="translate(0 632.522)"/>
              <line id="Line_113" data-name="Line 113" class="cls-32" x2="770.875" transform="translate(0 711.587)"/>
              <line id="Line_114" data-name="Line 114" class="cls-32" x2="770.875" transform="translate(0 790.652)"/>
              <line id="Line_124" data-name="Line 124" class="cls-32" x2="770.875" transform="translate(0 1027.652)"/>
              <line id="Line_115" data-name="Line 115" class="cls-32" x2="770.875" transform="translate(0 869.718)"/>
              <line id="Line_123" data-name="Line 123" class="cls-32" x2="770.875" transform="translate(0 1106.718)"/>
              <line id="Line_121" data-name="Line 121" class="cls-32" x2="770.875" transform="translate(0 948.718)"/>
              <line id="Line_122" data-name="Line 122" class="cls-32" x2="770.875" transform="translate(0 1185.718)"/>
            </g>
            <path id="Path_460" data-name="Path 460" class="cls-19" d="M-2328.244-1161.541" transform="translate(27.494)"/>
            <g id="Group_302" data-name="Group 302" transform="translate(-2359.531 -1161.46)">
              <path id="Path_461" data-name="Path 461" class="cls-30" d="M-2354.91-1086.605l-15.326-61.223a18.136,18.136,0,0,1,13.189-22h0a18.136,18.136,0,0,1,22,13.189l6.762,27.016" transform="translate(2370.782 1170.371)"/>
              <path id="Path_462" data-name="Path 462" class="cls-30" d="M-2363.374-1117.828l14.4,57.519a25.514,25.514,0,0,0,30.945,18.554h0a25.513,25.513,0,0,0,18.553-30.945l-6.674-25.844" transform="translate(2369.947 1164.445)"/>
            </g>
          </g>
        </g>
        <g id="Group_412" data-name="Group 412" transform="translate(520 491)">
          <text id="ראש_מדור_טי_ל" data-name="ראש מדור טי״ל" class="cls-33" transform="translate(358 52)"><tspan x="-358.12" y="0">ראש מדור טי״ל</tspan></text>
          <text id="רס_ן_מיגל_לויתן" data-name="רס״ן מיגל לויתן" class="cls-34" transform="translate(360 105)"><tspan x="-244.606" y="0">רס״ן מיגל לויתן</tspan></text>
        </g>
        <g id="Group_411" data-name="Group 411" transform="translate(517 725.653)">
          <text id="מנהל_פרויקטים" data-name="מנהל פרויקטים" class="cls-33" transform="translate(361 52.347)"><tspan x="-361.48" y="0">מנהל פרויקטים</tspan></text>
          <text id="רס_ר_שלומי_אוגרן" data-name="רס״ר שלומי אוגרן" class="cls-34" transform="translate(362 105.347)"><tspan x="-284.622" y="0">רס״ר שלומי אוגרן</tspan></text>
        </g>
        <g id="Group_410" data-name="Group 410" transform="translate(502 961.366)">
          <text id="ראש_תחום_מו_פ" data-name="ראש תחום מו״פ" class="cls-33" transform="translate(376 51.634)"><tspan x="-376.04" y="0">ראש תחום מו״פ</tspan></text>
          <text id="סמל_גל_גנסין" data-name="סמל גל גנסין" class="cls-34" transform="translate(377 103.634)"><tspan x="-209.305" y="0">סמל גל גנסין</tspan></text>
        </g>
        <g id="Group_409" data-name="Group 409" transform="translate(492 1196.078)">
          <text id="מפתחת_הלומדה_" data-name="מפתחת הלומדה " class="cls-33" transform="translate(386 51.922)"><tspan x="-386.344" y="0"> </tspan><tspan y="0">מפתחת הלומדה</tspan></text>
          <text id="רב_ט_הלה_צביון" data-name="רב״ט הלה צביון" class="cls-34" transform="translate(387 104.922)"><tspan x="-249.444" y="0">רב״ט הלה צביון</tspan></text>
        </g>
        <g id="Group_413" data-name="Group 413" transform="translate(523 1431.848)">
          <text id="מעצב_UX_UI" data-name="מעצב UX &amp; UI" class="cls-33" transform="translate(355 52.152)"><tspan x="-354.76" y="0">UX &amp; UI</tspan><tspan y="0">מעצב </tspan></text>
          <text id="סמל_דור_סגיב" data-name="סמל דור סגיב" class="cls-34" transform="translate(356 105.152)"><tspan x="-221.113" y="0">סמל דור סגיב</tspan></text>
        </g>
        <g id="Mask_Group_1" data-name="Mask Group 1" class="cls-35" transform="translate(0 -40)">
          <g id="Group_3-2" data-name="Group 3" class="cls-36" transform="translate(-3070.983 659.545)">
            <path id="Path_6-3" data-name="Path 6" class="cls-37" d="M2812,430.092c2.6-12.736,4.768-25.576,7.864-38.188,7.2-29.456,21.2-55.486,40.788-78.544,31.4-36.97,70.641-62.051,116.652-76.975,4.431-1.424,7.038-.681,10.134,2.56,23.324,24.3,46.505,48.778,70.389,72.537,26.707,26.567,54.537,51.915,86.8,71.876,27.78,17.154,56.8,31.624,88.841,42.255.955-4.067,1.919-7.844,2.705-11.684,10.916-53.691,52-94.191,106.37-102.819,38.186-6.069,72.743,4.5,103.025,28.239,26.831,21.014,41.515,49.562,48.776,82.321a21,21,0,0,0,.786,2.023c27.87-9.723,53.958-22.789,79.266-37.672,27.5-16.163,51.313-36.661,73.51-59.326,33.25-33.956,66.857-67.6,100.034-101.684,29.66-30.489,58.974-61.349,88.347-92.126q36.225-37.961,72.229-76.108c1.3-1.383,2.453-2.911,4.4-5.2l-18.062-6.028c20.6-6.605,39.755-12.778,58.93-18.867,4.688-1.486,9.456-2.7,14.185-4.046a18.676,18.676,0,0,1-.168,3.241q-6.129,28.486-12.359,56.952c-.955,4.356-2.009,8.67-3.349,14.47L3945.1,81.072l-158,169.638c1.879.97,3.942,2,6.009,3.1,27.351,14.656,51.911,33.11,72.224,56.539,28.033,32.346,44.943,69.812,49.646,112.707,3.383,30.757,1.34,60.895-7.637,90.475-14.016,46.135-40.892,83.333-79.7,111.633-31.812,23.2-67.4,37.714-106.74,42.42-5.88.7-11.746,1.672-17.632,2.518h-22.048c-1.854-.413-3.669-.95-5.544-1.239-11.009-1.672-22.172-2.539-32.974-5.016-49.824-11.394-91.854-36.021-125.134-75.1A203.483,203.483,0,0,1,3472.4,496.89c-1.459-7.039-2.72-14.119-4.1-21.241-69.543,17.917-138.487,18.165-208.238,1.2-.267,3.1-.391,5.615-.727,8.112a75.937,75.937,0,0,1-1.276,7.576c-12.4,54.372-39.695,99.207-85.068,132.338-31.89,23.305-67.312,37.9-106.656,42.709-5.653.7-11.3,1.672-16.93,2.518h-23.344a41.028,41.028,0,0,0-4.872-1.218c-10.608-1.445-21.45-1.878-31.792-4.356-67.728-16.266-119.931-53.567-153.1-115.514-11.063-20.642-19.175-42.482-20.58-66.365-.534-8.917-2.438-17.732-3.714-26.608Zm188.85-121.5c-10.648-11.25-20.476-21.8-30.609-32.016-1.034-1.032-4.333-.722-6.088.062-35.115,15.461-65.022,37.734-87.214,69.275-29.17,41.429-37.276,87.606-28.774,137.044,8.131,47.415,32.553,85.191,70.6,113.636,47.228,35.36,100.424,47.993,158.552,35.9,48.385-10.073,87.545-35.2,117.042-74.973,19.076-25.7,29.373-54.908,33.79-86.347.188-1.342-.722-3.8-1.736-4.19-13.062-5.1-26.233-9.908-39.833-14.966-.767,6.915-1.242,13.5-2.25,20-5.717,36.805-23.31,66.922-52.312,90.1-37.672,30.117-80.542,39.922-127.488,29.89-36.164-7.72-65.72-26.587-87.892-56.518-23.675-31.913-32.118-67.645-26.771-106.844,3.65-26.876,14.674-50.594,31.995-71.113C2942.482,333.094,2968.532,316.7,3000.853,308.591Zm498.7,158.2c3.4,14.388,5.881,29.415,10.584,43.679,10.465,31.707,29.274,57.9,54.928,79.411,32,26.814,68.781,42.461,110.108,46.239a188.578,188.578,0,0,0,99.4-17.732c46.3-21.963,79.781-55.982,97.986-104.14,10.5-27.764,13.19-56.58,10.01-86.14-2.062-19.156-6.727-37.466-14.966-54.784-20.021-42.048-52.925-71.2-93.653-92.292-11.89-6.172-11.954-6.007-21.613,3.592-7.592,7.514-15.233,14.966-23.488,23.057,2.889.908,4.481,1.445,6.108,1.9,22.646,6.358,43.142,17.092,60.21,33.11,35.466,33.255,52.168,74.085,46.985,123.09-3.551,33.544-17.32,62.587-41.263,85.81-39.077,37.92-86.324,52.2-139.585,40.273-53.464-11.972-90.493-44.546-108.555-96.647-5.119-14.739-6.543-30.757-9.664-46.115Zm-137.5-19.342c8.606-.557,17.276-.6,25.783-1.8q33.621-4.644,67.149-10.218c7.661-1.259,8.423-2.931,6.607-10.3-6.128-24.853-17.755-46.507-38.706-61.968-23.038-16.968-49.028-24.977-77.367-19.053-44.833,9.392-72.476,40.17-79.35,85.789-.6,3.922.727,5.821,4.629,6.688A456.631,456.631,0,0,0,3362.054,447.452Z" transform="translate(-0.002 42.81)"/>
            <path id="Path_7-3" data-name="Path 7" class="cls-37" d="M2849,205.275l-28.488-28.548c197.668-200.849,540.64-215.464,755.218-.8L3547.373,204.3c-96.522-92.787-212.7-142.452-348.427-142.494C3063.229,61.749,2947.008,111.249,2849,205.275Z" transform="translate(167.192 0)"/>
            <path id="Path_8-3" data-name="Path 8" class="cls-37" d="M2852.661,180.617l-28.69-28.713C2988.488-13.833,3265.4-19.53,3437.457,151.45L3408.435,180.1c-76.813-74.539-169.888-113.821-277.805-113.78C3022.94,66.342,2930.112,105.6,2852.661,180.617Z" transform="translate(235.096 97.091)"/>
            <path id="Path_9-3" data-name="Path 9" class="cls-37" d="M2856.487,154.591c-9.778-9.743-19.254-19.2-28.75-28.651C2946.945,2.5,3157.849-4.314,3286.054,125.733l-28.794,28.817C3146.864,43.556,2965.333,44.836,2856.487,154.591Z" transform="translate(309.071 202.425)"/>
            <path id="Path_10-3" data-name="Path 10" class="cls-37" d="M2896.625,155.772l-60.65-105.007c41.139,4.417,81.037,5.553,122.428-1.961Z" transform="translate(470.906 556.848)"/>
          </g>
        </g>
      </g>
      <g id="Group_511" data-name="Group 511" transform="translate(0 1970)">
        <g id="Group_510" data-name="Group 510">
          <g id="Component_15_3" data-name="Component 15 – 3" transform="translate(126.347 1643.029)">
            <g id="Group_37" data-name="Group 37" transform="translate(0 11.525)">
              <rect id="Rectangle_8" data-name="Rectangle 8" class="cls-38" width="421.413" height="666.685" rx="37.33" transform="translate(658.68) rotate(81.113)"/>
              <line id="Line_77" data-name="Line 77" class="cls-39" x2="11.51" y2="27.194" transform="translate(99.396 82.224)"/>
              <path id="Path_81" data-name="Path 81" class="cls-26" d="M256.363,592.663l2.725,6.438a8.836,8.836,0,0,1-4.693,11.581h0a8.835,8.835,0,0,1-11.581-4.693l-2.725-6.438-13.45-31.775" transform="translate(-145.67 -483.758)"/>
              <rect id="Rectangle_9" data-name="Rectangle 9" class="cls-15" width="405.879" height="642.109" rx="37.33" transform="translate(647.74 9.572) rotate(81.113)"/>
              <path id="Rectangle_10" data-name="Rectangle 10" class="cls-16" d="M37.33,0h2.131a0,0,0,0,1,0,0V642.109a0,0,0,0,1,0,0H37.33A37.33,37.33,0,0,1,0,604.779V37.33A37.33,37.33,0,0,1,37.33,0Z" transform="translate(647.74 9.572) rotate(81.113)"/>
              <g id="Group_35" data-name="Group 35" transform="translate(25.993 90.182)">
                <line id="Line_78" data-name="Line 78" class="cls-31" y1="99.195" x2="634.352"/>
                <line id="Line_79" data-name="Line 79" class="cls-32" y1="99.195" x2="634.352" transform="translate(8.436 53.947)"/>
                <line id="Line_80" data-name="Line 80" class="cls-32" y1="99.195" x2="634.352" transform="translate(16.871 107.893)"/>
                <line id="Line_81" data-name="Line 81" class="cls-32" y1="99.195" x2="634.352" transform="translate(25.307 161.84)"/>
                <line id="Line_82" data-name="Line 82" class="cls-32" y1="99.195" x2="634.352" transform="translate(33.743 215.786)"/>
                <line id="Line_83" data-name="Line 83" class="cls-32" y1="99.195" x2="634.352" transform="translate(42.179 269.733)"/>
              </g>
              <path id="Path_82" data-name="Path 82" class="cls-19" d="M804.662,572.164" transform="translate(-118.369 -483.55)"/>
              <g id="Group_36" data-name="Group 36" transform="translate(59.504 50.17)">
                <path id="Path_83" data-name="Path 83" class="cls-26" d="M228.873,608.2,207.4,557.461a15.832,15.832,0,0,1,8.409-20.75h0a15.83,15.83,0,0,1,20.75,8.408l9.477,22.39" transform="translate(-206.142 -535.454)"/>
                <path id="Path_84" data-name="Path 84" class="cls-26" d="M215.4,575.519l20.176,47.667a22.272,22.272,0,0,0,29.192,11.829h0A22.271,22.271,0,0,0,276.6,605.824l-8.377-19.792" transform="translate(-205.704 -533.562)"/>
              </g>
            </g>
            <g id="Group_40" data-name="Group 40" transform="translate(122.242)">
              <rect id="Rectangle_11" data-name="Rectangle 11" class="cls-38" width="421.413" height="666.685" rx="37.33" transform="translate(698.869 88.555) rotate(94.684)"/>
              <line id="Line_84" data-name="Line 84" class="cls-25" x2="4.808" y2="29.136" transform="translate(135.906 37.245)"/>
              <path id="Path_85" data-name="Path 85" class="cls-26" d="M401.375,540.812l1.137,6.9a8.835,8.835,0,0,1-7.279,10.156h0a8.834,8.834,0,0,1-10.156-7.279l-1.138-6.9-5.618-34.043" transform="translate(-260.748 -474.979)"/>
              <rect id="Rectangle_12" data-name="Rectangle 12" class="cls-15" width="405.879" height="642.109" rx="37.33" transform="translate(685.988 95.292) rotate(94.684)"/>
              <path id="Rectangle_13" data-name="Rectangle 13" class="cls-16" d="M37.33,0h2.131a0,0,0,0,1,0,0V642.109a0,0,0,0,1,0,0H37.33A37.33,37.33,0,0,1,0,604.779V37.33A37.33,37.33,0,0,1,37.33,0Z" transform="translate(685.988 95.292) rotate(94.684)"/>
              <g id="Group_38" data-name="Group 38" transform="translate(17.116 124.182)">
                <line id="Line_85" data-name="Line 85" class="cls-31" x2="639.917" y2="52.428" transform="translate(22.293)"/>
                <line id="Line_86" data-name="Line 86" class="cls-32" x2="639.917" y2="52.428" transform="translate(17.834 54.42)"/>
                <line id="Line_87" data-name="Line 87" class="cls-32" x2="639.917" y2="52.428" transform="translate(13.376 108.84)"/>
                <line id="Line_88" data-name="Line 88" class="cls-32" x2="639.917" y2="52.428" transform="translate(8.917 163.259)"/>
                <line id="Line_89" data-name="Line 89" class="cls-32" x2="639.917" y2="52.428" transform="translate(4.459 217.679)"/>
                <line id="Line_90" data-name="Line 90" class="cls-32" x2="639.917" y2="52.428" transform="translate(0 272.099)"/>
              </g>
              <path id="Path_86" data-name="Path 86" class="cls-19" d="M939.175,649.544" transform="translate(-234.258 -468.371)"/>
              <g id="Group_39" data-name="Group 39" transform="translate(100.493)">
                <path id="Path_87" data-name="Path 87" class="cls-26" d="M371.2,549.314l-8.971-54.36a15.833,15.833,0,0,1,13.043-18.2h0a15.832,15.832,0,0,1,18.2,13.043l3.959,23.988" transform="translate(-362.011 -476.542)"/>
                <path id="Path_88" data-name="Path 88" class="cls-26" d="M365.583,514.534l8.427,51.071a22.273,22.273,0,0,0,25.6,18.349h0a22.272,22.272,0,0,0,18.349-25.6l-3.5-21.205" transform="translate(-361.842 -474.748)"/>
              </g>
            </g>
            <g id="Group_43" data-name="Group 43" transform="translate(88.958 3.112)">
              <rect id="Rectangle_14" data-name="Rectangle 14" class="cls-38" width="421.413" height="666.685" rx="37.33" transform="translate(666.685 40.745) rotate(90)"/>
              <line id="Line_91" data-name="Line 91" class="cls-25" x2="7.171" y2="28.646" transform="translate(101.412 35.576)"/>
              <path id="Path_89" data-name="Path 89" class="cls-26" d="M338.978,541.641l1.7,6.782a8.834,8.834,0,0,1-6.426,10.716h0a8.836,8.836,0,0,1-10.717-6.426l-1.7-6.782-8.378-33.472" transform="translate(-230.527 -477.958)"/>
              <rect id="Rectangle_15" data-name="Rectangle 15" class="cls-15" width="405.879" height="642.109" rx="37.33" transform="translate(654.397 48.512) rotate(90)"/>
              <g id="Group_41" data-name="Group 41" transform="translate(12.336 130.102)">
                <line id="Line_92" data-name="Line 92" class="cls-31" x2="642.061"/>
                <line id="Line_93" data-name="Line 93" class="cls-32" x2="642.061" transform="translate(0 54.602)"/>
                <line id="Line_94" data-name="Line 94" class="cls-32" x2="642.061" transform="translate(0 109.204)"/>
                <line id="Line_95" data-name="Line 95" class="cls-32" x2="642.061" transform="translate(0 163.806)"/>
                <line id="Line_96" data-name="Line 96" class="cls-32" x2="642.061" transform="translate(0 218.409)"/>
                <line id="Line_97" data-name="Line 97" class="cls-32" x2="642.061" transform="translate(0 273.011)"/>
              </g>
              <g id="Group_299" data-name="Group 299" transform="translate(4032.606 -991.82)">
                <path id="Rectangle_16" data-name="Rectangle 16" class="cls-40" d="M-3378.209,1077.99v2.15h-642.109v-2.15a37.5,37.5,0,0,1,37.33-37.658h567.449A37.5,37.5,0,0,1-3378.209,1077.99Z" transform="translate(0 0)"/>
              </g>
              <path id="Path_90" data-name="Path 90" class="cls-19" d="M883.862,606.1" transform="translate(-203.586 -473.535)"/>
              <g id="Group_42" data-name="Group 42" transform="translate(64.315)">
                <path id="Path_91" data-name="Path 91" class="cls-26" d="M309.538,552.64,296.16,499.194a15.832,15.832,0,0,1,11.513-19.2h0a15.832,15.832,0,0,1,19.2,11.513l5.9,23.585" transform="translate(-295.682 -479.514)"/>
                <path id="Path_92" data-name="Path 92" class="cls-26" d="M301.161,518.374l12.57,50.212a22.272,22.272,0,0,0,27.013,16.2h0a22.271,22.271,0,0,0,16.2-27.013l-5.218-20.849" transform="translate(-295.423 -477.679)"/>
              </g>
            </g>
            <text id="נוהל_אפייה_ביחידות_צה_ל" data-name="נוהל אפייה
ביחידות צה״ל" class="cls-41" transform="translate(428.653 291.971)"><tspan x="-116.679" y="0"></tspan><tspan y="0">נוהל אפייה</tspan><tspan x="-148.85" y="53">ביחידות צה״ל</tspan></text>
            <g id="Group_518" data-name="Group 518" transform="translate(-12.348 -0.348)">
              <circle id="Ellipse_10" data-name="Ellipse 10" class="cls-28" cx="47" cy="47" r="47" transform="translate(379.001 120.32)"/>
            </g>
          </g>
          <g id="Component_15_4" data-name="Component 15 – 4" transform="translate(126.347 2244.029)">
            <g id="Group_37-2" data-name="Group 37" transform="translate(0 11.525)">
              <rect id="Rectangle_8-2" data-name="Rectangle 8" class="cls-38" width="421.413" height="666.685" rx="37.33" transform="translate(658.68) rotate(81.113)"/>
              <line id="Line_77-2" data-name="Line 77" class="cls-39" x2="11.51" y2="27.194" transform="translate(99.396 82.224)"/>
              <path id="Path_81-2" data-name="Path 81" class="cls-26" d="M256.363,592.663l2.725,6.438a8.836,8.836,0,0,1-4.693,11.581h0a8.835,8.835,0,0,1-11.581-4.693l-2.725-6.438-13.45-31.775" transform="translate(-145.67 -483.758)"/>
              <rect id="Rectangle_9-2" data-name="Rectangle 9" class="cls-15" width="405.879" height="642.109" rx="37.33" transform="translate(647.74 9.572) rotate(81.113)"/>
              <path id="Rectangle_10-2" data-name="Rectangle 10" class="cls-16" d="M37.33,0h2.131a0,0,0,0,1,0,0V642.109a0,0,0,0,1,0,0H37.33A37.33,37.33,0,0,1,0,604.779V37.33A37.33,37.33,0,0,1,37.33,0Z" transform="translate(647.74 9.572) rotate(81.113)"/>
              <g id="Group_35-2" data-name="Group 35" transform="translate(25.993 90.182)">
                <line id="Line_78-2" data-name="Line 78" class="cls-31" y1="99.195" x2="634.352"/>
                <line id="Line_79-2" data-name="Line 79" class="cls-32" y1="99.195" x2="634.352" transform="translate(8.436 53.947)"/>
                <line id="Line_80-2" data-name="Line 80" class="cls-32" y1="99.195" x2="634.352" transform="translate(16.871 107.893)"/>
                <line id="Line_81-2" data-name="Line 81" class="cls-32" y1="99.195" x2="634.352" transform="translate(25.307 161.84)"/>
                <line id="Line_82-2" data-name="Line 82" class="cls-32" y1="99.195" x2="634.352" transform="translate(33.743 215.786)"/>
                <line id="Line_83-2" data-name="Line 83" class="cls-32" y1="99.195" x2="634.352" transform="translate(42.179 269.733)"/>
              </g>
              <path id="Path_82-2" data-name="Path 82" class="cls-19" d="M804.662,572.164" transform="translate(-118.369 -483.55)"/>
              <g id="Group_36-2" data-name="Group 36" transform="translate(59.504 50.17)">
                <path id="Path_83-2" data-name="Path 83" class="cls-26" d="M228.873,608.2,207.4,557.461a15.832,15.832,0,0,1,8.409-20.75h0a15.83,15.83,0,0,1,20.75,8.408l9.477,22.39" transform="translate(-206.142 -535.454)"/>
                <path id="Path_84-2" data-name="Path 84" class="cls-26" d="M215.4,575.519l20.176,47.667a22.272,22.272,0,0,0,29.192,11.829h0A22.271,22.271,0,0,0,276.6,605.824l-8.377-19.792" transform="translate(-205.704 -533.562)"/>
              </g>
            </g>
            <g id="Group_40-2" data-name="Group 40" transform="translate(122.242)">
              <rect id="Rectangle_11-2" data-name="Rectangle 11" class="cls-38" width="421.413" height="666.685" rx="37.33" transform="translate(698.869 88.555) rotate(94.684)"/>
              <line id="Line_84-2" data-name="Line 84" class="cls-25" x2="4.808" y2="29.136" transform="translate(135.906 37.245)"/>
              <path id="Path_85-2" data-name="Path 85" class="cls-26" d="M401.375,540.812l1.137,6.9a8.835,8.835,0,0,1-7.279,10.156h0a8.834,8.834,0,0,1-10.156-7.279l-1.138-6.9-5.618-34.043" transform="translate(-260.748 -474.979)"/>
              <rect id="Rectangle_12-2" data-name="Rectangle 12" class="cls-15" width="405.879" height="642.109" rx="37.33" transform="translate(685.988 95.292) rotate(94.684)"/>
              <path id="Rectangle_13-2" data-name="Rectangle 13" class="cls-16" d="M37.33,0h2.131a0,0,0,0,1,0,0V642.109a0,0,0,0,1,0,0H37.33A37.33,37.33,0,0,1,0,604.779V37.33A37.33,37.33,0,0,1,37.33,0Z" transform="translate(685.988 95.292) rotate(94.684)"/>
              <g id="Group_38-2" data-name="Group 38" transform="translate(17.116 124.182)">
                <line id="Line_85-2" data-name="Line 85" class="cls-31" x2="639.917" y2="52.428" transform="translate(22.293)"/>
                <line id="Line_86-2" data-name="Line 86" class="cls-32" x2="639.917" y2="52.428" transform="translate(17.834 54.42)"/>
                <line id="Line_87-2" data-name="Line 87" class="cls-32" x2="639.917" y2="52.428" transform="translate(13.376 108.84)"/>
                <line id="Line_88-2" data-name="Line 88" class="cls-32" x2="639.917" y2="52.428" transform="translate(8.917 163.259)"/>
                <line id="Line_89-2" data-name="Line 89" class="cls-32" x2="639.917" y2="52.428" transform="translate(4.459 217.679)"/>
                <line id="Line_90-2" data-name="Line 90" class="cls-32" x2="639.917" y2="52.428" transform="translate(0 272.099)"/>
              </g>
              <path id="Path_86-2" data-name="Path 86" class="cls-19" d="M939.175,649.544" transform="translate(-234.258 -468.371)"/>
              <g id="Group_39-2" data-name="Group 39" transform="translate(100.493)">
                <path id="Path_87-2" data-name="Path 87" class="cls-26" d="M371.2,549.314l-8.971-54.36a15.833,15.833,0,0,1,13.043-18.2h0a15.832,15.832,0,0,1,18.2,13.043l3.959,23.988" transform="translate(-362.011 -476.542)"/>
                <path id="Path_88-2" data-name="Path 88" class="cls-26" d="M365.583,514.534l8.427,51.071a22.273,22.273,0,0,0,25.6,18.349h0a22.272,22.272,0,0,0,18.349-25.6l-3.5-21.205" transform="translate(-361.842 -474.748)"/>
              </g>
            </g>
            <g id="Group_43-2" data-name="Group 43" transform="translate(88.958 3.112)">
              <rect id="Rectangle_14-2" data-name="Rectangle 14" class="cls-38" width="421.413" height="666.685" rx="37.33" transform="translate(666.685 40.745) rotate(90)"/>
              <line id="Line_91-2" data-name="Line 91" class="cls-25" x2="7.171" y2="28.646" transform="translate(101.412 35.576)"/>
              <path id="Path_89-2" data-name="Path 89" class="cls-26" d="M338.978,541.641l1.7,6.782a8.834,8.834,0,0,1-6.426,10.716h0a8.836,8.836,0,0,1-10.717-6.426l-1.7-6.782-8.378-33.472" transform="translate(-230.527 -477.958)"/>
              <rect id="Rectangle_15-2" data-name="Rectangle 15" class="cls-15" width="405.879" height="642.109" rx="37.33" transform="translate(654.397 48.512) rotate(90)"/>
              <g id="Group_41-2" data-name="Group 41" transform="translate(12.336 130.102)">
                <line id="Line_92-2" data-name="Line 92" class="cls-31" x2="642.061"/>
                <line id="Line_93-2" data-name="Line 93" class="cls-32" x2="642.061" transform="translate(0 54.602)"/>
                <line id="Line_94-2" data-name="Line 94" class="cls-32" x2="642.061" transform="translate(0 109.204)"/>
                <line id="Line_95-2" data-name="Line 95" class="cls-32" x2="642.061" transform="translate(0 163.806)"/>
                <line id="Line_96-2" data-name="Line 96" class="cls-32" x2="642.061" transform="translate(0 218.409)"/>
                <line id="Line_97-2" data-name="Line 97" class="cls-32" x2="642.061" transform="translate(0 273.011)"/>
              </g>
              <g id="Group_299-2" data-name="Group 299" transform="translate(4032.606 -991.82)">
                <path id="Rectangle_16-2" data-name="Rectangle 16" class="cls-40" d="M-3378.209,1077.99v2.15h-642.109v-2.15a37.5,37.5,0,0,1,37.33-37.658h567.449A37.5,37.5,0,0,1-3378.209,1077.99Z" transform="translate(0 0)"/>
              </g>
              <path id="Path_90-2" data-name="Path 90" class="cls-19" d="M883.862,606.1" transform="translate(-203.586 -473.535)"/>
              <g id="Group_42-2" data-name="Group 42" transform="translate(64.315)">
                <path id="Path_91-2" data-name="Path 91" class="cls-26" d="M309.538,552.64,296.16,499.194a15.832,15.832,0,0,1,11.513-19.2h0a15.832,15.832,0,0,1,19.2,11.513l5.9,23.585" transform="translate(-295.682 -479.514)"/>
                <path id="Path_92-2" data-name="Path 92" class="cls-26" d="M301.161,518.374l12.57,50.212a22.272,22.272,0,0,0,27.013,16.2h0a22.271,22.271,0,0,0,16.2-27.013l-5.218-20.849" transform="translate(-295.423 -477.679)"/>
              </g>
            </g>
            <text id="הוראות_05-02-09" data-name="הוראות 05-02-09" class="cls-41" transform="translate(428.653 291.971)"><tspan x="-212.636" y="0">05-02-09</tspan><tspan y="0">הוראות </tspan></text>
            <g id="Group_518-2" data-name="Group 518" transform="translate(-12.348 -0.348)">
              <circle id="Ellipse_10-2" data-name="Ellipse 10" class="cls-28" cx="47" cy="47" r="47" transform="translate(379.001 120.32)"/>
            </g>
          </g>
          <g id="Group_47-2" data-name="Group 47">
            <g id="Group_33-3" data-name="Group 33" transform="translate(-9.095 46.473)">
              <line id="Line_76-2" data-name="Line 76" class="cls-25" x2="5.643" y2="22.544" transform="translate(194.744 60.459)"/>
              <path id="Path_78-2" data-name="Path 78" class="cls-26" d="M235.412,81.92l1.336,5.337a6.952,6.952,0,0,1-5.057,8.433h0a6.954,6.954,0,0,1-8.434-5.057L221.921,85.3l-6.594-26.341" transform="translate(-35.129 0.658)"/>
              <rect id="Rectangle_7-3" data-name="Rectangle 7" class="cls-15" width="811.141" height="124.787" rx="25" transform="translate(144.262 78.055)"/>
              <text id="הכשרות_במטבחי_צה_ל-2" data-name="הכשרות במטבחי צה״ל" class="cls-27" transform="translate(547.095 163.527)"><tspan x="-316.8" y="0">הכשרות במטבחי צה״ל</tspan></text>
              <g id="Group_32-2" data-name="Group 32" transform="translate(165.549 32.462)">
                <path id="Path_79-2" data-name="Path 79" class="cls-26" d="M211.938,90.009l-10.529-42.06a12.459,12.459,0,0,1,9.061-15.111h0A12.459,12.459,0,0,1,225.582,41.9l4.646,18.56" transform="translate(-201.033 -32.462)"/>
                <path id="Path_80-2" data-name="Path 80" class="cls-26" d="M205.44,63.711l9.892,39.516a17.527,17.527,0,0,0,21.258,12.746h0a17.528,17.528,0,0,0,12.747-21.258L245.23,78.307" transform="translate(-200.924 -31.686)"/>
              </g>
            </g>
          </g>
          <g id="Component_4_22" data-name="Component 4 – 22" transform="translate(126.347 441.029)">
            <g id="Group_37-3" data-name="Group 37" transform="translate(0 11.525)">
              <rect id="Rectangle_8-3" data-name="Rectangle 8" class="cls-38" width="421.413" height="666.685" rx="37.33" transform="translate(658.68) rotate(81.113)"/>
              <line id="Line_77-3" data-name="Line 77" class="cls-39" x2="11.51" y2="27.194" transform="translate(99.396 82.224)"/>
              <path id="Path_81-3" data-name="Path 81" class="cls-26" d="M256.363,592.663l2.725,6.438a8.836,8.836,0,0,1-4.693,11.581h0a8.835,8.835,0,0,1-11.581-4.693l-2.725-6.438-13.45-31.775" transform="translate(-145.67 -483.758)"/>
              <rect id="Rectangle_9-3" data-name="Rectangle 9" class="cls-15" width="405.879" height="642.109" rx="37.33" transform="translate(647.74 9.572) rotate(81.113)"/>
              <path id="Rectangle_10-3" data-name="Rectangle 10" class="cls-16" d="M37.33,0h2.131a0,0,0,0,1,0,0V642.109a0,0,0,0,1,0,0H37.33A37.33,37.33,0,0,1,0,604.779V37.33A37.33,37.33,0,0,1,37.33,0Z" transform="translate(647.74 9.572) rotate(81.113)"/>
              <g id="Group_35-3" data-name="Group 35" transform="translate(25.993 90.182)">
                <line id="Line_78-3" data-name="Line 78" class="cls-31" y1="99.195" x2="634.352"/>
                <line id="Line_79-3" data-name="Line 79" class="cls-32" y1="99.195" x2="634.352" transform="translate(8.436 53.947)"/>
                <line id="Line_80-3" data-name="Line 80" class="cls-32" y1="99.195" x2="634.352" transform="translate(16.871 107.893)"/>
                <line id="Line_81-3" data-name="Line 81" class="cls-32" y1="99.195" x2="634.352" transform="translate(25.307 161.84)"/>
                <line id="Line_82-3" data-name="Line 82" class="cls-32" y1="99.195" x2="634.352" transform="translate(33.743 215.786)"/>
                <line id="Line_83-3" data-name="Line 83" class="cls-32" y1="99.195" x2="634.352" transform="translate(42.179 269.733)"/>
              </g>
              <path id="Path_82-3" data-name="Path 82" class="cls-19" d="M804.662,572.164" transform="translate(-118.369 -483.55)"/>
              <g id="Group_36-3" data-name="Group 36" transform="translate(59.504 50.17)">
                <path id="Path_83-3" data-name="Path 83" class="cls-26" d="M228.873,608.2,207.4,557.461a15.832,15.832,0,0,1,8.409-20.75h0a15.83,15.83,0,0,1,20.75,8.408l9.477,22.39" transform="translate(-206.142 -535.454)"/>
                <path id="Path_84-3" data-name="Path 84" class="cls-26" d="M215.4,575.519l20.176,47.667a22.272,22.272,0,0,0,29.192,11.829h0A22.271,22.271,0,0,0,276.6,605.824l-8.377-19.792" transform="translate(-205.704 -533.562)"/>
              </g>
            </g>
            <g id="Group_40-3" data-name="Group 40" transform="translate(122.242)">
              <rect id="Rectangle_11-3" data-name="Rectangle 11" class="cls-38" width="421.413" height="666.685" rx="37.33" transform="translate(698.869 88.555) rotate(94.684)"/>
              <line id="Line_84-3" data-name="Line 84" class="cls-25" x2="4.808" y2="29.136" transform="translate(135.906 37.245)"/>
              <path id="Path_85-3" data-name="Path 85" class="cls-26" d="M401.375,540.812l1.137,6.9a8.835,8.835,0,0,1-7.279,10.156h0a8.834,8.834,0,0,1-10.156-7.279l-1.138-6.9-5.618-34.043" transform="translate(-260.748 -474.979)"/>
              <rect id="Rectangle_12-3" data-name="Rectangle 12" class="cls-15" width="405.879" height="642.109" rx="37.33" transform="translate(685.988 95.292) rotate(94.684)"/>
              <path id="Rectangle_13-3" data-name="Rectangle 13" class="cls-16" d="M37.33,0h2.131a0,0,0,0,1,0,0V642.109a0,0,0,0,1,0,0H37.33A37.33,37.33,0,0,1,0,604.779V37.33A37.33,37.33,0,0,1,37.33,0Z" transform="translate(685.988 95.292) rotate(94.684)"/>
              <g id="Group_38-3" data-name="Group 38" transform="translate(17.116 124.182)">
                <line id="Line_85-3" data-name="Line 85" class="cls-31" x2="639.917" y2="52.428" transform="translate(22.293)"/>
                <line id="Line_86-3" data-name="Line 86" class="cls-32" x2="639.917" y2="52.428" transform="translate(17.834 54.42)"/>
                <line id="Line_87-3" data-name="Line 87" class="cls-32" x2="639.917" y2="52.428" transform="translate(13.376 108.84)"/>
                <line id="Line_88-3" data-name="Line 88" class="cls-32" x2="639.917" y2="52.428" transform="translate(8.917 163.259)"/>
                <line id="Line_89-3" data-name="Line 89" class="cls-32" x2="639.917" y2="52.428" transform="translate(4.459 217.679)"/>
                <line id="Line_90-3" data-name="Line 90" class="cls-32" x2="639.917" y2="52.428" transform="translate(0 272.099)"/>
              </g>
              <path id="Path_86-3" data-name="Path 86" class="cls-19" d="M939.175,649.544" transform="translate(-234.258 -468.371)"/>
              <g id="Group_39-3" data-name="Group 39" transform="translate(100.493)">
                <path id="Path_87-3" data-name="Path 87" class="cls-26" d="M371.2,549.314l-8.971-54.36a15.833,15.833,0,0,1,13.043-18.2h0a15.832,15.832,0,0,1,18.2,13.043l3.959,23.988" transform="translate(-362.011 -476.542)"/>
                <path id="Path_88-3" data-name="Path 88" class="cls-26" d="M365.583,514.534l8.427,51.071a22.273,22.273,0,0,0,25.6,18.349h0a22.272,22.272,0,0,0,18.349-25.6l-3.5-21.205" transform="translate(-361.842 -474.748)"/>
              </g>
            </g>
            <g id="Group_43-3" data-name="Group 43" transform="translate(88.958 3.112)">
              <rect id="Rectangle_14-3" data-name="Rectangle 14" class="cls-38" width="421.413" height="666.685" rx="37.33" transform="translate(666.685 40.745) rotate(90)"/>
              <line id="Line_91-3" data-name="Line 91" class="cls-25" x2="7.171" y2="28.646" transform="translate(101.412 35.576)"/>
              <path id="Path_89-3" data-name="Path 89" class="cls-26" d="M338.978,541.641l1.7,6.782a8.834,8.834,0,0,1-6.426,10.716h0a8.836,8.836,0,0,1-10.717-6.426l-1.7-6.782-8.378-33.472" transform="translate(-230.527 -477.958)"/>
              <rect id="Rectangle_15-3" data-name="Rectangle 15" class="cls-15" width="405.879" height="642.109" rx="37.33" transform="translate(654.397 48.512) rotate(90)"/>
              <g id="Group_41-3" data-name="Group 41" transform="translate(12.336 130.102)">
                <line id="Line_92-3" data-name="Line 92" class="cls-31" x2="642.061"/>
                <line id="Line_93-3" data-name="Line 93" class="cls-32" x2="642.061" transform="translate(0 54.602)"/>
                <line id="Line_94-3" data-name="Line 94" class="cls-32" x2="642.061" transform="translate(0 109.204)"/>
                <line id="Line_95-3" data-name="Line 95" class="cls-32" x2="642.061" transform="translate(0 163.806)"/>
                <line id="Line_96-3" data-name="Line 96" class="cls-32" x2="642.061" transform="translate(0 218.409)"/>
                <line id="Line_97-3" data-name="Line 97" class="cls-32" x2="642.061" transform="translate(0 273.011)"/>
              </g>
              <g id="Group_299-3" data-name="Group 299" transform="translate(4032.606 -991.82)">
                <path id="Rectangle_16-3" data-name="Rectangle 16" class="cls-40" d="M-3378.209,1077.99v2.15h-642.109v-2.15a37.5,37.5,0,0,1,37.33-37.658h567.449A37.5,37.5,0,0,1-3378.209,1077.99Z" transform="translate(0 0)"/>
              </g>
              <path id="Path_90-3" data-name="Path 90" class="cls-19" d="M883.862,606.1" transform="translate(-203.586 -473.535)"/>
              <g id="Group_42-3" data-name="Group 42" transform="translate(64.315)">
                <path id="Path_91-3" data-name="Path 91" class="cls-26" d="M309.538,552.64,296.16,499.194a15.832,15.832,0,0,1,11.513-19.2h0a15.832,15.832,0,0,1,19.2,11.513l5.9,23.585" transform="translate(-295.682 -479.514)"/>
                <path id="Path_92-3" data-name="Path 92" class="cls-26" d="M301.161,518.374l12.57,50.212a22.272,22.272,0,0,0,27.013,16.2h0a22.271,22.271,0,0,0,16.2-27.013l-5.218-20.849" transform="translate(-295.423 -477.679)"/>
              </g>
            </g>
            <text id="נוהל_כשרות_המזון_בשבת" data-name="נוהל כשרות
המזון בשבת" class="cls-41" transform="translate(428.653 290.972)"><tspan x="-128.499" y="0"></tspan><tspan y="0">נוהל כשרות</tspan><tspan x="-131.891" y="53">המזון בשבת</tspan></text>
            <g id="Group_443" data-name="Group 443" transform="translate(-4 -4)">
              <g id="Group_429" data-name="Group 429" transform="translate(6.652 6.652)">
                <circle id="Ellipse_10-3" data-name="Ellipse 10" class="cls-28" cx="47" cy="47" r="47" transform="translate(379.001 120.32)"/>
              </g>
              <g id="Group_442" data-name="Group 442" transform="translate(4013.81 4400.65)">
                <ellipse id="Ellipse_11" data-name="Ellipse 11" class="cls-15" cx="19.377" cy="7.856" rx="19.377" ry="7.856" transform="translate(-3600.585 -4212.51)"/>
                <rect id="Rectangle_56" data-name="Rectangle 56" class="cls-15" width="38.753" height="18.689" transform="translate(-3600.585 -4222.202)"/>
                <ellipse id="Ellipse_12" data-name="Ellipse 12" class="cls-28" cx="19.377" cy="7.856" rx="19.377" ry="7.856" transform="translate(-3600.585 -4229.944)"/>
                <g id="Group_442-2" data-name="Group 442" transform="translate(-3583.846 -4231.911)">
                  <rect id="Rectangle_57" data-name="Rectangle 57" class="cls-15" width="4.198" height="11.041" rx="2" transform="translate(0 0)"/>
                </g>
                <ellipse id="Ellipse_13" data-name="Ellipse 13" class="cls-15" cx="7.572" cy="7.573" rx="7.572" ry="7.573" transform="translate(-3589.277 -4251.472)"/>
                <path id="Path_492" data-name="Path 492" class="cls-15" d="M-3524.286-4244.17s-4.7-6.789-4.438-9.14c0,0-9.662,7.051-9.662,12.795" transform="translate(-50.89 -3.646)"/>
                <path id="Path_493" data-name="Path 493" class="cls-28" d="M3.714,0A3.714,3.714,0,1,1,0,3.714,3.714,3.714,0,0,1,3.714,0Z" transform="translate(-3585.418 -4246.451)"/>
              </g>
            </g>
            <g id="Group_430" data-name="Group 430" transform="translate(-163.98 -821.093)">
              <rect id="Rectangle_48" data-name="Rectangle 48" class="cls-42" width="41.26" height="41.26" rx="20.63" transform="translate(540.686 1005.877)"/>
              <g id="Group_367" data-name="Group 367" transform="translate(552.26 1019.582)">
                <g id="Group_365" data-name="Group 365" transform="translate(0 0)">
                  <path id="Path_474" data-name="Path 474" class="cls-43" d="M20.209,2,6.294,15.915,2,11.621" transform="translate(-2 -2)"/>
                </g>
              </g>
            </g>
          </g>
          <g id="Group_444" data-name="Group 444" transform="translate(-3.427 -33.427)">
            <g id="Group_540" data-name="Group 540">
              <g id="Group_445" data-name="Group 445" class="cls-44" transform="translate(997.664 87.495)">
                <g id="Group_372" data-name="Group 372" transform="translate(0 0)">
                  <path id="Path_489" data-name="Path 489" class="cls-45" d="M17.529,34.408,0,17.2,17.529,0" transform="translate(43.357 34.408) rotate(180)"/>
                  <path id="Path_490" data-name="Path 490" class="cls-46" d="M122.226,53.864H79.814" transform="translate(-79.814 -36.66)"/>
                </g>
              </g>
              <g id="Group_440" data-name="Group 440" transform="translate(998.638 87.915)">
                <g id="Group_372-2" data-name="Group 372">
                  <path id="Path_489-2" data-name="Path 489" class="cls-47" d="M16.784,33.568,0,16.784,16.784,0" transform="translate(42.167 33.568) rotate(180)"/>
                  <path id="Path_490-2" data-name="Path 490" class="cls-48" d="M121.982,53.864H79.814" transform="translate(-79.814 -37.08)"/>
                </g>
              </g>
            </g>
            <rect id="Rectangle_58" data-name="Rectangle 58" class="cls-49" width="72" height="72" transform="translate(985.427 69.427)"/>
          </g>
          <g id="Component_15_2" data-name="Component 15 – 2" transform="translate(126.347 1042.029)">
            <g id="Group_37-4" data-name="Group 37" transform="translate(0 11.525)">
              <rect id="Rectangle_8-4" data-name="Rectangle 8" class="cls-38" width="421.413" height="666.685" rx="37.33" transform="translate(658.68) rotate(81.113)"/>
              <line id="Line_77-4" data-name="Line 77" class="cls-39" x2="11.51" y2="27.194" transform="translate(99.396 82.224)"/>
              <path id="Path_81-4" data-name="Path 81" class="cls-26" d="M256.363,592.663l2.725,6.438a8.836,8.836,0,0,1-4.693,11.581h0a8.835,8.835,0,0,1-11.581-4.693l-2.725-6.438-13.45-31.775" transform="translate(-145.67 -483.758)"/>
              <rect id="Rectangle_9-4" data-name="Rectangle 9" class="cls-15" width="405.879" height="642.109" rx="37.33" transform="translate(647.74 9.572) rotate(81.113)"/>
              <path id="Rectangle_10-4" data-name="Rectangle 10" class="cls-16" d="M37.33,0h2.131a0,0,0,0,1,0,0V642.109a0,0,0,0,1,0,0H37.33A37.33,37.33,0,0,1,0,604.779V37.33A37.33,37.33,0,0,1,37.33,0Z" transform="translate(647.74 9.572) rotate(81.113)"/>
              <g id="Group_35-4" data-name="Group 35" transform="translate(25.993 90.182)">
                <line id="Line_78-4" data-name="Line 78" class="cls-31" y1="99.195" x2="634.352"/>
                <line id="Line_79-4" data-name="Line 79" class="cls-32" y1="99.195" x2="634.352" transform="translate(8.436 53.947)"/>
                <line id="Line_80-4" data-name="Line 80" class="cls-32" y1="99.195" x2="634.352" transform="translate(16.871 107.893)"/>
                <line id="Line_81-4" data-name="Line 81" class="cls-32" y1="99.195" x2="634.352" transform="translate(25.307 161.84)"/>
                <line id="Line_82-4" data-name="Line 82" class="cls-32" y1="99.195" x2="634.352" transform="translate(33.743 215.786)"/>
                <line id="Line_83-4" data-name="Line 83" class="cls-32" y1="99.195" x2="634.352" transform="translate(42.179 269.733)"/>
              </g>
              <path id="Path_82-4" data-name="Path 82" class="cls-19" d="M804.662,572.164" transform="translate(-118.369 -483.55)"/>
              <g id="Group_36-4" data-name="Group 36" transform="translate(59.504 50.17)">
                <path id="Path_83-4" data-name="Path 83" class="cls-26" d="M228.873,608.2,207.4,557.461a15.832,15.832,0,0,1,8.409-20.75h0a15.83,15.83,0,0,1,20.75,8.408l9.477,22.39" transform="translate(-206.142 -535.454)"/>
                <path id="Path_84-4" data-name="Path 84" class="cls-26" d="M215.4,575.519l20.176,47.667a22.272,22.272,0,0,0,29.192,11.829h0A22.271,22.271,0,0,0,276.6,605.824l-8.377-19.792" transform="translate(-205.704 -533.562)"/>
              </g>
            </g>
            <g id="Group_40-4" data-name="Group 40" transform="translate(122.242)">
              <rect id="Rectangle_11-4" data-name="Rectangle 11" class="cls-38" width="421.413" height="666.685" rx="37.33" transform="translate(698.869 88.555) rotate(94.684)"/>
              <line id="Line_84-4" data-name="Line 84" class="cls-25" x2="4.808" y2="29.136" transform="translate(135.906 37.245)"/>
              <path id="Path_85-4" data-name="Path 85" class="cls-26" d="M401.375,540.812l1.137,6.9a8.835,8.835,0,0,1-7.279,10.156h0a8.834,8.834,0,0,1-10.156-7.279l-1.138-6.9-5.618-34.043" transform="translate(-260.748 -474.979)"/>
              <rect id="Rectangle_12-4" data-name="Rectangle 12" class="cls-15" width="405.879" height="642.109" rx="37.33" transform="translate(685.988 95.292) rotate(94.684)"/>
              <path id="Rectangle_13-4" data-name="Rectangle 13" class="cls-16" d="M37.33,0h2.131a0,0,0,0,1,0,0V642.109a0,0,0,0,1,0,0H37.33A37.33,37.33,0,0,1,0,604.779V37.33A37.33,37.33,0,0,1,37.33,0Z" transform="translate(685.988 95.292) rotate(94.684)"/>
              <g id="Group_38-4" data-name="Group 38" transform="translate(17.116 124.182)">
                <line id="Line_85-4" data-name="Line 85" class="cls-31" x2="639.917" y2="52.428" transform="translate(22.293)"/>
                <line id="Line_86-4" data-name="Line 86" class="cls-32" x2="639.917" y2="52.428" transform="translate(17.834 54.42)"/>
                <line id="Line_87-4" data-name="Line 87" class="cls-32" x2="639.917" y2="52.428" transform="translate(13.376 108.84)"/>
                <line id="Line_88-4" data-name="Line 88" class="cls-32" x2="639.917" y2="52.428" transform="translate(8.917 163.259)"/>
                <line id="Line_89-4" data-name="Line 89" class="cls-32" x2="639.917" y2="52.428" transform="translate(4.459 217.679)"/>
                <line id="Line_90-4" data-name="Line 90" class="cls-32" x2="639.917" y2="52.428" transform="translate(0 272.099)"/>
              </g>
              <path id="Path_86-4" data-name="Path 86" class="cls-19" d="M939.175,649.544" transform="translate(-234.258 -468.371)"/>
              <g id="Group_39-4" data-name="Group 39" transform="translate(100.493)">
                <path id="Path_87-4" data-name="Path 87" class="cls-26" d="M371.2,549.314l-8.971-54.36a15.833,15.833,0,0,1,13.043-18.2h0a15.832,15.832,0,0,1,18.2,13.043l3.959,23.988" transform="translate(-362.011 -476.542)"/>
                <path id="Path_88-4" data-name="Path 88" class="cls-26" d="M365.583,514.534l8.427,51.071a22.273,22.273,0,0,0,25.6,18.349h0a22.272,22.272,0,0,0,18.349-25.6l-3.5-21.205" transform="translate(-361.842 -474.748)"/>
              </g>
            </g>
            <g id="Group_43-4" data-name="Group 43" transform="translate(88.958 3.112)">
              <rect id="Rectangle_14-4" data-name="Rectangle 14" class="cls-38" width="421.413" height="666.685" rx="37.33" transform="translate(666.685 40.745) rotate(90)"/>
              <line id="Line_91-4" data-name="Line 91" class="cls-25" x2="7.171" y2="28.646" transform="translate(101.412 35.576)"/>
              <path id="Path_89-4" data-name="Path 89" class="cls-26" d="M338.978,541.641l1.7,6.782a8.834,8.834,0,0,1-6.426,10.716h0a8.836,8.836,0,0,1-10.717-6.426l-1.7-6.782-8.378-33.472" transform="translate(-230.527 -477.958)"/>
              <rect id="Rectangle_15-4" data-name="Rectangle 15" class="cls-15" width="405.879" height="642.109" rx="37.33" transform="translate(654.397 48.512) rotate(90)"/>
              <g id="Group_41-4" data-name="Group 41" transform="translate(12.336 130.102)">
                <line id="Line_92-4" data-name="Line 92" class="cls-31" x2="642.061"/>
                <line id="Line_93-4" data-name="Line 93" class="cls-32" x2="642.061" transform="translate(0 54.602)"/>
                <line id="Line_94-4" data-name="Line 94" class="cls-32" x2="642.061" transform="translate(0 109.204)"/>
                <line id="Line_95-4" data-name="Line 95" class="cls-32" x2="642.061" transform="translate(0 163.806)"/>
                <line id="Line_96-4" data-name="Line 96" class="cls-32" x2="642.061" transform="translate(0 218.409)"/>
                <line id="Line_97-4" data-name="Line 97" class="cls-32" x2="642.061" transform="translate(0 273.011)"/>
              </g>
              <g id="Group_299-4" data-name="Group 299" transform="translate(4032.606 -991.82)">
                <path id="Rectangle_16-4" data-name="Rectangle 16" class="cls-40" d="M-3378.209,1077.99v2.15h-642.109v-2.15a37.5,37.5,0,0,1,37.33-37.658h567.449A37.5,37.5,0,0,1-3378.209,1077.99Z" transform="translate(0 0)"/>
              </g>
              <path id="Path_90-4" data-name="Path 90" class="cls-19" d="M883.862,606.1" transform="translate(-203.586 -473.535)"/>
              <g id="Group_42-4" data-name="Group 42" transform="translate(64.315)">
                <path id="Path_91-4" data-name="Path 91" class="cls-26" d="M309.538,552.64,296.16,499.194a15.832,15.832,0,0,1,11.513-19.2h0a15.832,15.832,0,0,1,19.2,11.513l5.9,23.585" transform="translate(-295.682 -479.514)"/>
                <path id="Path_92-4" data-name="Path 92" class="cls-26" d="M301.161,518.374l12.57,50.212a22.272,22.272,0,0,0,27.013,16.2h0a22.271,22.271,0,0,0,16.2-27.013l-5.218-20.849" transform="translate(-295.423 -477.679)"/>
              </g>
            </g>
            <text id="נוהל_ברירת_וניפוי_מוצרי_מזון" data-name="נוהל ברירת וניפוימוצרי מזון" class="cls-41" transform="translate(428.653 291.971)"><tspan x="-183.433" y="0"></tspan><tspan y="0">נוהל ברירת וניפוי</tspan><tspan x="-108.836" y="53">מוצרי מזון</tspan></text>
            <g id="Group_518-3" data-name="Group 518" transform="translate(-12.348 -0.348)">
              <circle id="Ellipse_10-4" data-name="Ellipse 10" class="cls-28" cx="47" cy="47" r="47" transform="translate(379.001 120.32)"/>
            </g>
          </g>
        </g>
      </g>
    </g>
    <path id="Path_518" data-name="Path 518" class="cls-50" d="M0,0H1080V1018H0Z" transform="translate(0 900)"/>
    <g id="Group_512" data-name="Group 512" transform="translate(-78.243 18.149)">
      <g id="Group_54" data-name="Group 54" transform="translate(656.482 1704.528)">
        <g id="practice_btn">
          <rect id="Rectangle_23" data-name="Rectangle 23" class="cls-29" width="391.166" height="97.901" rx="23" transform="translate(0 13)"/>
          <rect id="Rectangle_19" data-name="Rectangle 19" class="cls-15" width="391.166" height="97.901" rx="23"/>
          <g id="Group_293" data-name="Group 293" transform="translate(99.269 17)">
            <text id="תרגול" class="cls-51" transform="translate(67.492 50.324)"><tspan x="-66.912" y="0">תרגול</tspan></text>
            <g id="Group_285" data-name="Group 285" transform="translate(156.742 7.111)">
              <g id="Group_292" data-name="Group 292">
                <g id="Group_290" data-name="Group 290" transform="translate(0 23.438)">
                  <path id="Path_453" data-name="Path 453" class="cls-28" d="M838.112,441.872a4.682,4.682,0,0,1,0,6.619l-6.409,2.022a1.79,1.79,0,0,1-2.243-2.243l2.022-6.4A4.682,4.682,0,0,1,838.112,441.872Z" transform="translate(-829.375 -440.496)"/>
                </g>
                <g id="Group_291" data-name="Group 291">
                  <path id="Path_454" data-name="Path 454" class="cls-52" d="M831.231,444.285l.055-.055,24.8-24.809a4.688,4.688,0,0,1,6.63,6.63l-24.8,24.8-.066.066" transform="translate(-829.18 -418.053)"/>
                  <path id="Path_455" data-name="Path 455" class="cls-52" d="M831.481,441.872a4.685,4.685,0,1,1,6.63,6.619l-6.409,2.022a1.79,1.79,0,0,1-2.243-2.243Z" transform="translate(-829.375 -415.695)"/>
                </g>
              </g>
              <path id="Path_456" data-name="Path 456" class="cls-52" d="M825.367,453.81l-4.223-3.553c-3.208-2.7-6.987-2.011-9.24,1.684h0c-2.313,3.795-6.227,4.407-9.473,1.482l-4.473-4.034" transform="translate(-790.683 -406.001)"/>
            </g>
          </g>
        </g>
        <g id="exam_btn">
          <rect id="Rectangle_25" data-name="Rectangle 25" class="cls-29" width="391.166" height="97.901" rx="23" transform="translate(-474.239 13)"/>
          <rect id="Rectangle_24" data-name="Rectangle 24" class="cls-15" width="391.166" height="97.901" rx="23" transform="translate(-474.239)"/>
          <g id="Group_541" data-name="Group 541" transform="translate(-474.314)">
            <text id="מבחן" class="cls-51" transform="translate(163.075 67.323)"><tspan x="-58.221" y="0">מבחן</tspan></text>
            <g id="Group_296" data-name="Group 296" transform="translate(244.565 23.363)">
              <path id="Path_457" data-name="Path 457" class="cls-52" d="M442.759,1792.38l-22.035-3.979a2.987,2.987,0,0,1-2.456-2.939v-32.852a2.988,2.988,0,0,1,3.518-2.94l22.035,3.979a2.986,2.986,0,0,1,2.456,2.94v32.852A2.987,2.987,0,0,1,442.759,1792.38Z" transform="translate(-418.268 -1741.41)"/>
              <path id="Path_458" data-name="Path 458" class="cls-52" d="M424.543,1742.757l25.554,4.615a2.987,2.987,0,0,1,2.456,2.939v36.428" transform="translate(-416.919 -1742.757)"/>
              <g id="Group_295" data-name="Group 295" transform="translate(7.03 15.235)">
                <g id="Group_294" data-name="Group 294">
                  <line id="Line_99" data-name="Line 99" class="cls-52" x2="13.95" y2="2.582"/>
                  <line id="Line_100" data-name="Line 100" class="cls-52" x2="13.95" y2="2.582" transform="translate(0 8.53)"/>
                  <line id="Line_101" data-name="Line 101" class="cls-52" x2="13.95" y2="2.582" transform="translate(0 17.06)"/>
                  <line id="Line_102" data-name="Line 102" class="cls-52" x2="13.95" y2="2.582" transform="translate(0 25.591)"/>
                </g>
              </g>
            </g>
          </g>
        </g>
      </g>
    </g>
    <text id="בחרו_נושא_אותו_תרצו_ללמוד" data-name="בחרו נושא אותו תרצו ללמוד" class="cls-24" transform="translate(540 352)"><tspan x="-286.832" y="0">בחרו נושא אותו תרצו ללמוד</tspan></text>
  </g>
</svg>
