<svg xmlns="http://www.w3.org/2000/svg" xmlns:xlink="http://www.w3.org/1999/xlink" width="1080" height="1920" viewBox="0 0 1080 1920">
  <defs>
    <style>
      .cls-1 {
        clip-path: url(#clip-beforePractice_popup);
      }

      .cls-13, .cls-14, .cls-15, .cls-19, .cls-2, .cls-4, .cls-5 {
        fill: none;
      }

      .cls-2 {
        stroke: #708fa0;
      }

      .cls-13, .cls-14, .cls-2, .cls-5 {
        stroke-linecap: round;
      }

      .cls-15, .cls-2, .cls-4 {
        stroke-miterlimit: 10;
      }

      .cls-2, .cls-4, .cls-5 {
        stroke-width: 8px;
      }

      .cls-17, .cls-3, .cls-8 {
        fill: #fff;
      }

      .cls-4 {
        stroke: #b3b3b3;
      }

      .cls-5 {
        stroke: #1c3f55;
      }

      .cls-6, .cls-9 {
        fill: #1c3f55;
      }

      .cls-6 {
        font-size: 72px;
      }

      .cls-6, .cls-8 {
        font-family: Rubik-Bold, Rubik;
        font-weight: 700;
      }

      .cls-7 {
        fill: #1de8f7;
      }

      .cls-8 {
        font-size: 44px;
      }

      .cls-9 {
        font-size: 39px;
      }

      .cls-11, .cls-9 {
        font-family: Rubik-Regular, Rubik;
      }

      .cls-10 {
        font-family: Rubik-Medium, Rubik;
      }

      .cls-10, .cls-12 {
        font-weight: 500;
      }

      .cls-11 {
        font-weight: 400;
      }

      .cls-12 {
        font-family: Rubik-MediumItalic, Rubik;
        font-style: italic;
      }

      .cls-13 {
        stroke: #dbdbdb;
        stroke-width: 2px;
        opacity: 0.5;
      }

      .cls-14, .cls-15 {
        stroke: #2be8f7;
        stroke-width: 6px;
      }

      .cls-14 {
        stroke-linejoin: round;
      }

      .cls-16 {
        opacity: 0;
      }

      .cls-17 {
        stroke: #707070;
      }

      .cls-18 {
        stroke: none;
      }
    </style>
    <clipPath id="clip-beforePractice_popup">
      <rect width="1080" height="1920"/>
    </clipPath>
  </defs>
  <g id="beforePractice_popup" class="cls-1">
    <rect id="Rectangle_72" data-name="Rectangle 72" width="1080" height="1920"/>
    <g id="Group_487" data-name="Group 487">
      <g id="Group_303" data-name="Group 303" transform="translate(156.707 209.766)">
        <line id="Line_103" data-name="Line 103" class="cls-2" x2="7.729" y2="30.876" transform="translate(143.563 38.421)"/>
        <path id="Path_459" data-name="Path 459" class="cls-2" d="M-2320.259-1098.426l1.83,7.309a9.524,9.524,0,0,1-6.926,11.552h0a9.524,9.524,0,0,1-11.551-6.926l-1.83-7.309-9.031-36.077" transform="translate(2470.558 1163.757)"/>
        <rect id="Rectangle_27" data-name="Rectangle 27" class="cls-3" width="767.274" height="1020.035" rx="37.326" transform="translate(0 48.921)"/>
        <path id="Path_460" data-name="Path 460" class="cls-4" d="M-2328.244-1161.541" transform="translate(2487.13 1161.541)"/>
        <g id="Group_302" data-name="Group 302" transform="translate(103.578 0.076)">
          <path id="Path_461" data-name="Path 461" class="cls-2" d="M-2355.848-1091.555l-14.42-57.605a17.065,17.065,0,0,1,12.41-20.7h0a17.065,17.065,0,0,1,20.7,12.41l6.363,25.42" transform="translate(2370.783 1170.371)"/>
          <path id="Path_462" data-name="Path 462" class="cls-2" d="M-2363.374-1117.828l13.548,54.12a24.006,24.006,0,0,0,29.116,17.458h0a24.006,24.006,0,0,0,17.457-29.116l-6.28-24.317" transform="translate(2369.559 1161.69)"/>
        </g>
      </g>
      <g id="Group_470" data-name="Group 470" transform="translate(6 -159)">
        <g id="Group_440" data-name="Group 440" transform="translate(635.21 575.488)">
          <g id="Group_372" data-name="Group 372" transform="translate(210.043 -107.993) rotate(45)">
            <path id="Path_490" data-name="Path 490" class="cls-5" d="M121.982,53.864H79.814" transform="translate(-79.814 -37.08)"/>
          </g>
          <g id="Group_468" data-name="Group 468" transform="translate(210.043 -107.993) rotate(45)">
            <path id="Path_490-2" data-name="Path 490" class="cls-5" d="M121.982,53.864H79.814" transform="translate(-79.814 -37.08)"/>
          </g>
        </g>
        <g id="Group_469" data-name="Group 469" transform="translate(767.078 281.188) rotate(90)">
          <g id="Group_372-2" data-name="Group 372" transform="translate(210.043 -107.993) rotate(45)">
            <path id="Path_490-3" data-name="Path 490" class="cls-5" d="M121.982,53.864H79.814" transform="translate(-79.814 -37.08)"/>
          </g>
          <g id="Group_468-2" data-name="Group 468" transform="translate(210.043 -107.993) rotate(45)">
            <path id="Path_490-4" data-name="Path 490" class="cls-5" d="M121.982,53.864H79.814" transform="translate(-79.814 -37.08)"/>
          </g>
        </g>
      </g>
      <text id="לפני_שמתחילים" data-name="לפני שמתחילים" class="cls-6" transform="translate(540 435)"><tspan x="-237.528" y="0">לפני שמתחילים</tspan></text>
      <g id="Group_451" data-name="Group 451" transform="translate(0 -252.651)">
        <rect id="Rectangle_19" data-name="Rectangle 19" class="cls-7" width="271.166" height="97.901" rx="23" transform="translate(404.239 1329.677)"/>
        <text id="הבנתי" class="cls-8" transform="translate(540 1394)"><tspan x="-58.432" y="0">הבנתי</tspan></text>
      </g>
      <g id="Group_488" data-name="Group 488" transform="translate(110 -181)">
        <text id="לכל_שאלה_הזמן_מוגבל_לכ-2_דקות" data-name="לכל שאלה הזמן מוגבל
לכ-2 דקות" class="cls-9" transform="translate(695 758.98)"><tspan x="-348.348" y="0"></tspan><tspan y="0">לכל שאלה הזמן מוגבל</tspan><tspan class="cls-10"><tspan x="-175.734" y="46.8" xml:space="preserve"> דקות</tspan><tspan y="46.8">2</tspan><tspan class="cls-11" y="46.8">לכ-</tspan></tspan></text>
      </g>
      <g id="Group_490" data-name="Group 490" transform="translate(8 -175)">
        <text id="החליקו_את_הכרטיסיות_כדי_לעבור_בין_שאלות" data-name="החליקו את הכרטיסיות
כדי לעבור בין שאלות" class="cls-9" transform="translate(797 1097.099)"><tspan x="-352.872" y="0"></tspan><tspan y="0" xml:space="preserve"> את הכרטיסיות</tspan><tspan class="cls-12" y="0">החליקו</tspan><tspan x="-320.19" y="46.8">כדי לעבור בין שאלות</tspan></text>
      </g>
      <g id="Group_501" data-name="Group 501" transform="translate(8 -181)">
        <text id="קחו_נשימה_זה_רק_תרגול_אל_תילחצו..." data-name="קחו נשימה, זה רק תרגול
אל תילחצו..." class="cls-9" transform="translate(797 927.98)"><tspan x="-387.465" y="0"></tspan><tspan y="0">, זה רק תרגול</tspan><tspan class="cls-10" y="0">קחו נשימה</tspan><tspan x="-189.891" y="46.8">אל תילחצו...</tspan></text>
      </g>
      <path id="Path_517" data-name="Path 517" class="cls-13" d="M836.239,761.856v590.08" transform="translate(1601.242 -163.335) rotate(90)"/>
      <path id="Path_517-2" data-name="Path 517" class="cls-13" d="M836.239,761.856v590.08" transform="translate(1601.242 8.665) rotate(90)"/>
      <path id="Path_517-3" data-name="Path 517" class="cls-13" d="M836.239,761.856v590.08" transform="translate(1601.242 180.665) rotate(90)"/>
      <g id="Group_547" data-name="Group 547" transform="translate(283.506 553.563)">
        <path id="Path_470" data-name="Path 470" class="cls-14" d="M54.994,36.118A26.747,26.747,0,1,1,28.246,9.372,26.747,26.747,0,0,1,54.994,36.118Z" transform="translate(-1.5 6.084)"/>
        <path id="Path_471" data-name="Path 471" class="cls-14" d="M19.885,18.427V32l7.088,6.126" transform="translate(6.861 10.202)"/>
        <rect id="Rectangle_44" data-name="Rectangle 44" class="cls-14" width="1.682" height="12.663" transform="translate(25.905 1.323)"/>
        <rect id="Rectangle_46" data-name="Rectangle 46" class="cls-14" width="8.707" height="2.944" transform="translate(22.393)"/>
      </g>
      <g id="Group_548" data-name="Group 548" transform="translate(3779.909 1982.982)">
        <path id="Path_512" data-name="Path 512" class="cls-14" d="M-3395.609-1241.614a10.976,10.976,0,0,0-10.976-10.976,10.976,10.976,0,0,0-10.976,10.976,10.976,10.976,0,0,0,10.976,10.976h30.4" transform="translate(-66.723)"/>
        <path id="Path_513" data-name="Path 513" class="cls-14" d="M-3488.386-1170.937a7.812,7.812,0,0,0-7.812-7.812,7.812,7.812,0,0,0-7.812,7.812,7.812,7.812,0,0,0,7.812,7.812h53.289" transform="translate(0 -56.992)"/>
        <path id="Path_514" data-name="Path 514" class="cls-14" d="M-3366-1066.457a6.829,6.829,0,0,1-6.829,6.829,6.829,6.829,0,0,1-6.829-6.829,6.829,6.829,0,0,1,6.829-6.829h25.9" transform="translate(-95.974 -136.586)"/>
      </g>
      <g id="Group_549" data-name="Group 549" transform="translate(-154.023 148.236)">
        <g id="Group_31" data-name="Group 31" transform="translate(461.94 771.776)">
          <g id="Group_30" data-name="Group 30">
            <g id="Group_29" data-name="Group 29">
              <line id="Line_74" data-name="Line 74" class="cls-14" y2="5.296" transform="translate(22.052 19.471)"/>
              <path id="Path_74" data-name="Path 74" class="cls-14" d="M517.7,1778.984v-25.892a4.171,4.171,0,0,1,4.214-4.123,4.278,4.278,0,0,1,2.973,1.206,4.069,4.069,0,0,1,1.23,2.917v10.451" transform="translate(-504.06 -1748.969)"/>
              <line id="Line_75" data-name="Line 75" class="cls-14" y2="5.354" transform="translate(38.875 22.377)"/>
              <path id="Path_75" data-name="Path 75" class="cls-14" d="M520.347,1775.844l-6.46-6.431a4.249,4.249,0,0,0-5.946,0,4.074,4.074,0,0,0,0,5.834l10.6,10.4,6.018,5.448H554v-23.6a4.174,4.174,0,0,0-4.214-4.135,4.228,4.228,0,0,0-2.973,1.206,4.126,4.126,0,0,0-1.23,2.929" transform="translate(-506.711 -1745.829)"/>
              <path id="Path_76" data-name="Path 76" class="cls-14" d="M532.894,1765.409v-3.737a4.174,4.174,0,0,0-4.215-4.124,4.28,4.28,0,0,0-2.973,1.207,4.073,4.073,0,0,0-1.229,2.917v4.9" transform="translate(-502.424 -1747.098)"/>
              <path id="Path_77" data-name="Path 77" class="cls-14" d="M531.258,1773.129v-8.389a4.161,4.161,0,0,1,4.2-4.123,4.229,4.229,0,0,1,2.973,1.206,4.121,4.121,0,0,1,1.23,2.917v4.065" transform="translate(-500.788 -1746.43)"/>
            </g>
          </g>
        </g>
        <g id="Group_401" data-name="Group 401" transform="translate(429.08 746.252)">
          <g id="Group_402" data-name="Group 402" transform="translate(0 0)">
            <path id="Path_479" data-name="Path 479" class="cls-3" d="M23,53H5.493A3.493,3.493,0,0,1,2,49.51V19.085a3.493,3.493,0,0,1,3.493-3.493H23a3.493,3.493,0,0,1,3.493,3.493V49.51A3.493,3.493,0,0,1,23,53" transform="translate(-2 -15.592)"/>
            <rect id="Rectangle_51" data-name="Rectangle 51" class="cls-15" width="24.494" height="37.412" rx="4.041" transform="translate(0)"/>
          </g>
        </g>
        <g id="Group_493" data-name="Group 493" transform="matrix(0.899, 0.438, -0.438, 0.899, 454.837, 731.898)">
          <g id="Group_402-2" data-name="Group 402" transform="translate(0 0)">
            <path id="Path_479-2" data-name="Path 479" class="cls-3" d="M21,37.412H3.493A3.493,3.493,0,0,1,0,33.918V3.493A3.493,3.493,0,0,1,3.493,0H21a3.493,3.493,0,0,1,3.493,3.493V33.918A3.493,3.493,0,0,1,21,37.412" transform="translate(0 0)"/>
            <rect id="Rectangle_51-2" data-name="Rectangle 51" class="cls-15" width="24.494" height="37.412" rx="4.041" transform="translate(0 0)"/>
          </g>
        </g>
      </g>
    </g>
    <g id="Group_523" data-name="Group 523" class="cls-16">
      <g id="Rectangle_77" data-name="Rectangle 77" class="cls-17">
        <rect class="cls-18" width="157" height="1920"/>
        <rect class="cls-19" x="0.5" y="0.5" width="156" height="1919"/>
      </g>
      <g id="Rectangle_78" data-name="Rectangle 78" class="cls-17" transform="translate(923)">
        <rect class="cls-18" width="157" height="1920"/>
        <rect class="cls-19" x="0.5" y="0.5" width="156" height="1919"/>
      </g>
      <g id="Rectangle_79" data-name="Rectangle 79" class="cls-17" transform="translate(157)">
        <rect class="cls-18" width="824" height="240"/>
        <rect class="cls-19" x="0.5" y="0.5" width="823" height="239"/>
      </g>
      <g id="Rectangle_80" data-name="Rectangle 80" class="cls-17" transform="translate(157 1275)">
        <rect class="cls-18" width="824" height="645"/>
        <rect class="cls-19" x="0.5" y="0.5" width="823" height="644"/>
      </g>
    </g>
  </g>
</svg>
