<svg xmlns="http://www.w3.org/2000/svg" xmlns:xlink="http://www.w3.org/1999/xlink" width="1080" height="1920" viewBox="0 0 1080 1920">
  <defs>
    <style>
      .cls-1, .cls-14, .cls-18, .cls-20, .cls-21, .cls-23, .cls-3, .cls-5, .cls-6 {
        fill: none;
      }

      .cls-2 {
        clip-path: url(#clip-practiceFinish_popup);
      }

      .cls-3 {
        stroke: #708fa0;
      }

      .cls-14, .cls-20, .cls-23, .cls-3, .cls-6 {
        stroke-linecap: round;
      }

      .cls-19, .cls-21, .cls-3, .cls-5 {
        stroke-miterlimit: 10;
      }

      .cls-20, .cls-3, .cls-5, .cls-6 {
        stroke-width: 8px;
      }

      .cls-17, .cls-19, .cls-25, .cls-27, .cls-4 {
        fill: #fff;
      }

      .cls-5 {
        stroke: #b3b3b3;
      }

      .cls-6 {
        stroke: #1c3f55;
      }

      .cls-10, .cls-7, .cls-8 {
        fill: #1c3f55;
      }

      .cls-7 {
        font-size: 72px;
      }

      .cls-10, .cls-25, .cls-7 {
        font-family: Rubik-Bold, Rubik;
        font-weight: 700;
      }

      .cls-8 {
        font-size: 42px;
        font-family: Rubik-Medium, Rubik;
        font-weight: 500;
      }

      .cls-11, .cls-15, .cls-9 {
        font-family: Rubik-Regular, Rubik;
      }

      .cls-9 {
        font-weight: 400;
      }

      .cls-10 {
        font-size: 61px;
      }

      .cls-11, .cls-15 {
        fill: #bcbcbc;
      }

      .cls-11 {
        font-size: 32px;
      }

      .cls-12 {
        fill: #f0f0f0;
        stroke: #f0f0f0;
      }

      .cls-12, .cls-13, .cls-17 {
        stroke-width: 3px;
      }

      .cls-13, .cls-24 {
        fill: #2be8f7;
      }

      .cls-13, .cls-14, .cls-16, .cls-18, .cls-19, .cls-20, .cls-21, .cls-24 {
        stroke: #2be8f7;
      }

      .cls-14, .cls-20 {
        stroke-linejoin: round;
      }

      .cls-14, .cls-19, .cls-21, .cls-24 {
        stroke-width: 6px;
      }

      .cls-15 {
        font-size: 33px;
      }

      .cls-16 {
        fill: #414042;
      }

      .cls-17, .cls-23 {
        stroke: #dbdbdb;
      }

      .cls-18 {
        stroke-width: 4px;
      }

      .cls-22 {
        clip-path: url(#clip-path);
      }

      .cls-23 {
        stroke-width: 2px;
        opacity: 0.5;
      }

      .cls-25 {
        font-size: 44px;
      }

      .cls-26 {
        opacity: 0;
      }

      .cls-27 {
        stroke: #707070;
      }

      .cls-28 {
        stroke: none;
      }
    </style>
    <clipPath id="clip-path">
      <rect class="cls-1" width="592.08" height="825"/>
    </clipPath>
    <clipPath id="clip-practiceFinish_popup">
      <rect width="1080" height="1920"/>
    </clipPath>
  </defs>
  <g id="practiceFinish_popup" class="cls-2">
    <rect id="Rectangle_36" data-name="Rectangle 36" width="1080" height="1920"/>
    <g id="Group_321" data-name="Group 321">
      <g id="Group_303" data-name="Group 303" transform="translate(156.707 209.766)">
        <line id="Line_103" data-name="Line 103" class="cls-3" x2="7.729" y2="30.876" transform="translate(143.563 38.421)"/>
        <path id="Path_459" data-name="Path 459" class="cls-3" d="M-2320.259-1098.426l1.83,7.309a9.524,9.524,0,0,1-6.926,11.552h0a9.524,9.524,0,0,1-11.551-6.926l-1.83-7.309-9.031-36.077" transform="translate(2470.558 1163.757)"/>
        <rect id="Rectangle_27" data-name="Rectangle 27" class="cls-4" width="767.274" height="1430.313" rx="37.326" transform="translate(0 48.921)"/>
        <path id="Path_460" data-name="Path 460" class="cls-5" d="M-2328.244-1161.541" transform="translate(2487.13 1161.541)"/>
        <g id="Group_302" data-name="Group 302" transform="translate(103.578 0.076)">
          <path id="Path_461" data-name="Path 461" class="cls-3" d="M-2355.848-1091.555l-14.42-57.605a17.065,17.065,0,0,1,12.41-20.7h0a17.065,17.065,0,0,1,20.7,12.41l6.363,25.42" transform="translate(2370.783 1170.371)"/>
          <path id="Path_462" data-name="Path 462" class="cls-3" d="M-2363.374-1117.828l13.548,54.12a24.006,24.006,0,0,0,29.116,17.458h0a24.006,24.006,0,0,0,17.457-29.116l-6.28-24.317" transform="translate(2369.559 1161.69)"/>
        </g>
      </g>
      <g id="Group_470" data-name="Group 470" transform="translate(6 -159)">
        <g id="Group_440" data-name="Group 440" transform="translate(635.21 575.488)">
          <g id="Group_372" data-name="Group 372" transform="translate(210.043 -107.993) rotate(45)">
            <path id="Path_490" data-name="Path 490" class="cls-6" d="M121.982,53.864H79.814" transform="translate(-79.814 -37.08)"/>
          </g>
          <g id="Group_468" data-name="Group 468" transform="translate(210.043 -107.993) rotate(45)">
            <path id="Path_490-2" data-name="Path 490" class="cls-6" d="M121.982,53.864H79.814" transform="translate(-79.814 -37.08)"/>
          </g>
        </g>
        <g id="Group_469" data-name="Group 469" transform="translate(767.078 281.188) rotate(90)">
          <g id="Group_372-2" data-name="Group 372" transform="translate(210.043 -107.993) rotate(45)">
            <path id="Path_490-3" data-name="Path 490" class="cls-6" d="M121.982,53.864H79.814" transform="translate(-79.814 -37.08)"/>
          </g>
          <g id="Group_468-2" data-name="Group 468" transform="translate(210.043 -107.993) rotate(45)">
            <path id="Path_490-4" data-name="Path 490" class="cls-6" d="M121.982,53.864H79.814" transform="translate(-79.814 -37.08)"/>
          </g>
        </g>
      </g>
      <text id="פשש_סחתיין_" data-name="פשש… סחתיין!" class="cls-7" transform="translate(540 435)"><tspan x="-223.488" y="0">פשש… סחתיין!</tspan></text>
      <text id="עברת_בהצלחה_את_התרגול_הנה_כמה_נתונים_שיעזרו_לך" data-name="עברת בהצלחה את התרגול,
הנה כמה נתונים שיעזרו לך" class="cls-8" transform="translate(540 529)"><tspan x="-234.759" y="0"></tspan><tspan y="0">עברת בהצלחה את התרגול,</tspan><tspan class="cls-9"><tspan x="-225.624" y="59">הנה כמה נתונים שיעזרו לך</tspan></tspan></text>
      <g id="Group_481" data-name="Group 481" transform="translate(241.363 702.458)">
        <g id="Group_477" data-name="Group 477" transform="translate(0.177)">
          <text id="_12_תשובות_נכונות" data-name="12 תשובות נכונות" class="cls-10" transform="translate(596.46 56.542)"><tspan x="-466.955" y="0" xml:space="preserve"> תשובות נכונות</tspan><tspan y="0">12</tspan></text>
          <text id="מתוך_18_שאלות" data-name="מתוך 18 שאלות" class="cls-11" transform="translate(489.46 105.542)"><tspan x="-101.376" y="0" xml:space="preserve"> שאלות</tspan><tspan y="0">18</tspan><tspan y="0">מתוך </tspan></text>
          <g id="Rectangle_69" data-name="Rectangle 69" class="cls-12" transform="translate(0.46 132.542)">
            <rect class="cls-28" width="597" height="12" rx="6"/>
            <rect class="cls-1" x="-1.5" y="-1.5" width="600" height="15" rx="7.5"/>
          </g>
          <g id="Rectangle_71" data-name="Rectangle 71" class="cls-13" transform="translate(129.46 132.542)">
            <rect class="cls-28" width="468" height="12" rx="6"/>
            <rect class="cls-1" x="-1.5" y="-1.5" width="471" height="15" rx="7.5"/>
          </g>
        </g>
        <g id="Group_367" data-name="Group 367" transform="translate(0 26.7)">
          <g id="Group_365" data-name="Group 365" transform="translate(0 0)">
            <path id="Path_474" data-name="Path 474" class="cls-14" d="M37.459,2l-27.1,27.1L2,20.733" transform="translate(-2 -2)"/>
          </g>
        </g>
      </g>
      <g id="Group_482" data-name="Group 482" transform="translate(241.174 968.745)">
        <g id="Group_478" data-name="Group 478" transform="translate(0.367 0.164)">
          <text id="_0:36_שניות" data-name="0:36 שניות" class="cls-10" transform="translate(596.459 57.091)"><tspan x="-305.061" y="0" xml:space="preserve"> שניות</tspan><tspan y="0">0:36</tspan></text>
          <text id="ממוצע_לשאלה" data-name="ממוצע לשאלה" class="cls-15" transform="translate(502.459 106.091)"><tspan x="-95.337" y="0">ממוצע לשאלה</tspan></text>
          <g id="Rectangle_69-2" data-name="Rectangle 69" class="cls-12" transform="translate(0.459 133.09)">
            <rect class="cls-28" width="597" height="12" rx="6"/>
            <rect class="cls-1" x="-1.5" y="-1.5" width="600" height="15" rx="7.5"/>
          </g>
          <g id="Rectangle_71-2" data-name="Rectangle 71" class="cls-13" transform="translate(129.459 133.09)">
            <rect class="cls-28" width="468" height="12" rx="6"/>
            <rect class="cls-1" x="-1.5" y="-1.5" width="471" height="15" rx="7.5"/>
          </g>
        </g>
        <g id="Group_357" data-name="Group 357" transform="translate(0 0)">
          <path id="Path_470" data-name="Path 470" class="cls-14" d="M44.04,30.641A21.27,21.27,0,1,1,22.769,9.372,21.27,21.27,0,0,1,44.04,30.641Z" transform="translate(-1.5 2.919)"/>
          <path id="Path_471" data-name="Path 471" class="cls-14" d="M19.885,18.427V29.221l5.636,4.872" transform="translate(1.385 4.34)"/>
          <rect id="Rectangle_43" data-name="Rectangle 43" class="cls-16" width="1.337" height="4.497" transform="translate(20.601 6.625)"/>
          <rect id="Rectangle_44" data-name="Rectangle 44" class="cls-14" width="1.337" height="10.07" transform="translate(20.601 1.052)"/>
          <rect id="Rectangle_46" data-name="Rectangle 46" class="cls-14" width="6.924" height="2.342" transform="translate(17.808)"/>
        </g>
      </g>
      <g id="Group_483" data-name="Group 483" transform="translate(240.351 1236.361)">
        <g id="Group_479" data-name="Group 479" transform="translate(1.19 0)">
          <text id="_2_עזרות" data-name="2 עזרות" class="cls-10" transform="translate(597.46 56.639)"><tspan x="-211.121" y="0" xml:space="preserve"> עזרות</tspan><tspan y="0">2</tspan></text>
          <text id="מתוך_2_עזרות" data-name="מתוך 2 עזרות" class="cls-15" transform="translate(502.46 106.639)"><tspan x="-91.278" y="0" xml:space="preserve"> עזרות</tspan><tspan y="0">2</tspan><tspan y="0">מתוך </tspan></text>
          <g id="Rectangle_69-3" data-name="Rectangle 69" class="cls-17" transform="translate(0.46 132.639)">
            <rect class="cls-28" width="597" height="12" rx="6"/>
            <rect class="cls-1" x="-1.5" y="-1.5" width="600" height="15" rx="7.5"/>
          </g>
          <g id="Rectangle_71-3" data-name="Rectangle 71" class="cls-13" transform="translate(0.46 132.639)">
            <rect class="cls-28" width="597" height="12" rx="6"/>
            <rect class="cls-1" x="-1.5" y="-1.5" width="600" height="15" rx="7.5"/>
          </g>
        </g>
        <g id="Group_484" data-name="Group 484" transform="translate(3086.227 1089.607)">
          <path id="Path_503" data-name="Path 503" class="cls-18" d="M6.911,0A6.911,6.911,0,1,1,0,6.911,6.911,6.911,0,0,1,6.911,0Z" transform="translate(-3082.58 -1047.451)"/>
          <path id="Path_506" data-name="Path 506" class="cls-18" d="M6.911,0A6.911,6.911,0,1,1,0,6.911,6.911,6.911,0,0,1,6.911,0Z" transform="translate(-3082.58 -1089.451)"/>
          <path id="Path_504" data-name="Path 504" class="cls-18" d="M6.911,0A6.911,6.911,0,1,1,0,6.911,6.911,6.911,0,0,1,6.911,0Z" transform="translate(-3042.58 -1047.451)"/>
          <path id="Path_505" data-name="Path 505" class="cls-18" d="M6.911,0A6.911,6.911,0,1,1,0,6.911,6.911,6.911,0,0,1,6.911,0Z" transform="translate(-3042.58 -1089.451)"/>
          <circle id="Ellipse_16" data-name="Ellipse 16" class="cls-19" cx="25.911" cy="25.911" r="25.911" transform="translate(-3082.58 -1087.452)"/>
          <path id="Path_501" data-name="Path 501" class="cls-20" d="M-3055.2-1040.04a20.032,20.032,0,0,1,20.032-20.032" transform="translate(-21.5 -21.5)"/>
          <path id="Path_502" data-name="Path 502" class="cls-20" d="M-2941.88-966.784a20.032,20.032,0,0,1-20.032,20.032" transform="translate(-94.757 -94.756)"/>
          <circle id="Ellipse_17" data-name="Ellipse 17" class="cls-21" cx="14.148" cy="14.148" r="14.148" transform="translate(-3070.817 -1075.689)"/>
        </g>
      </g>
      <g id="Repeat_Grid_1" data-name="Repeat Grid 1" class="cls-22" transform="translate(248.307 656.904)">
        <g transform="translate(-248.307 -671.905)">
          <path id="Path_517" data-name="Path 517" class="cls-23" d="M836.239,761.856v590.08" transform="translate(1601.242 -163.335) rotate(90)"/>
        </g>
        <g transform="translate(-248.307 -407.905)">
          <path id="Path_517-2" data-name="Path 517" class="cls-23" d="M836.239,761.856v590.08" transform="translate(1601.242 -163.335) rotate(90)"/>
        </g>
        <g transform="translate(-248.307 -143.905)">
          <path id="Path_517-3" data-name="Path 517" class="cls-23" d="M836.239,761.856v590.08" transform="translate(1601.242 -163.335) rotate(90)"/>
        </g>
        <g transform="translate(-248.307 120.095)">
          <path id="Path_517-4" data-name="Path 517" class="cls-23" d="M836.239,761.856v590.08" transform="translate(1601.242 -163.335) rotate(90)"/>
        </g>
      </g>
      <g id="Group_451" data-name="Group 451" transform="translate(-290 161.349)">
        <rect id="Rectangle_86" data-name="Rectangle 86" class="cls-24" width="289.166" height="97.901" rx="23" transform="translate(685.239 1329.677)"/>
        <text id="למסך_הבית" data-name="למסך הבית" class="cls-25" transform="translate(830 1394)"><tspan x="-105.864" y="0">למסך הבית</tspan></text>
      </g>
    </g>
    <g id="Group_523" data-name="Group 523" class="cls-26">
      <g id="Rectangle_77" data-name="Rectangle 77" class="cls-27">
        <rect class="cls-28" width="157" height="1920"/>
        <rect class="cls-1" x="0.5" y="0.5" width="156" height="1919"/>
      </g>
      <g id="Rectangle_78" data-name="Rectangle 78" class="cls-27" transform="translate(923)">
        <rect class="cls-28" width="157" height="1920"/>
        <rect class="cls-1" x="0.5" y="0.5" width="156" height="1919"/>
      </g>
      <g id="Rectangle_79" data-name="Rectangle 79" class="cls-27" transform="translate(157)">
        <rect class="cls-28" width="824" height="261"/>
        <rect class="cls-1" x="0.5" y="0.5" width="823" height="260"/>
      </g>
      <g id="Rectangle_80" data-name="Rectangle 80" class="cls-27" transform="translate(157 1690)">
        <rect class="cls-28" width="824" height="230"/>
        <rect class="cls-1" x="0.5" y="0.5" width="823" height="229"/>
      </g>
    </g>
  </g>
</svg>
